<svg width="77" height="86" viewBox="0 0 77 86" fill="none" xmlns="http://www.w3.org/2000/svg">
<path d="M60.1365 36.5698C59.4931 38.25 57.6093 39.0905 55.9291 38.447C54.2488 37.8036 53.4084 35.9198 54.0518 34.2396L59.0499 21.1884C59.6934 19.5082 61.5771 18.6677 63.2574 19.3112C64.9376 19.9546 65.7781 21.8384 65.1346 23.5186L60.1365 36.5698Z" fill="#A4C639"/>
<path d="M33.9863 51.0945C33.9863 49.2953 32.5278 47.8367 30.7285 47.8367C28.9293 47.8367 27.4707 49.2953 27.4707 51.0945V65.07C27.4707 66.8692 28.9293 68.3278 30.7285 68.3278C32.5278 68.3278 33.9863 66.8692 33.9863 65.07V51.0945Z" fill="#A4C639"/>
<path d="M23.2916 31.0342C23.2808 31.1575 23.2715 31.2826 23.2715 31.4089V52.5828C23.2715 54.8601 25.074 56.6944 27.3117 56.6944H48.8441C51.0818 56.6944 52.8843 54.8601 52.8843 52.5828V31.4089C52.8843 31.2826 52.88 31.1575 52.8692 31.0342H23.2917H23.2916Z" fill="#A4C639"/>
<path d="M44.8077 50.3973C43.9191 48.8328 41.9304 48.2849 40.3659 49.1736C38.8015 50.0622 38.2536 52.0508 39.1422 53.6153L46.0446 65.7673C46.9333 67.3318 48.9219 67.8796 50.4864 66.991C52.0509 66.1024 52.5988 64.1137 51.7101 62.5492L44.8077 50.3973Z" fill="#A4C639"/>
<path d="M23.3867 29.6432C23.4774 23.1396 29.1538 17.8068 36.4408 17.1038H39.715C47.002 17.8068 52.6784 23.1396 52.7691 29.6432H23.3867Z" fill="#A4C639"/>
<path d="M33.4723 23.9105C33.4727 24.1269 33.4293 24.3412 33.3447 24.5412C33.2602 24.7412 33.1361 24.923 32.9796 25.0761C32.823 25.2292 32.6371 25.3507 32.4325 25.4336C32.2278 25.5165 32.0085 25.5591 31.787 25.5591C31.5654 25.5591 31.3461 25.5165 31.1414 25.4336C30.9368 25.3507 30.7509 25.2292 30.5944 25.0761C30.4378 24.923 30.3137 24.7412 30.2292 24.5412C30.1446 24.3412 30.1012 24.1269 30.1016 23.9105C30.1012 23.6941 30.1446 23.4798 30.2292 23.2798C30.3137 23.0798 30.4378 22.898 30.5944 22.7449C30.7509 22.5918 30.9368 22.4703 31.1414 22.3874C31.3461 22.3046 31.5654 22.2619 31.787 22.2619C32.0085 22.2619 32.2278 22.3046 32.4325 22.3874C32.6371 22.4703 32.823 22.5918 32.9796 22.7449C33.1361 22.898 33.2602 23.0798 33.3447 23.2798C33.4293 23.4798 33.4727 23.6941 33.4723 23.9105Z" fill="white"/>
<path d="M46.0534 23.9105C46.0537 24.1269 46.0103 24.3412 45.9258 24.5412C45.8412 24.7412 45.7171 24.923 45.5606 25.0761C45.4041 25.2292 45.2182 25.3507 45.0135 25.4336C44.8089 25.5165 44.5895 25.5591 44.368 25.5591C44.1465 25.5591 43.9271 25.5165 43.7225 25.4336C43.5178 25.3507 43.3319 25.2292 43.1754 25.0761C43.0189 24.923 42.8948 24.7412 42.8102 24.5412C42.7257 24.3412 42.6823 24.1269 42.6826 23.9105C42.6823 23.6941 42.7257 23.4798 42.8102 23.2798C42.8948 23.0798 43.0189 22.898 43.1754 22.7449C43.3319 22.5918 43.5178 22.4703 43.7225 22.3874C43.9271 22.3046 44.1465 22.2619 44.368 22.2619C44.5895 22.2619 44.8089 22.3046 45.0135 22.3874C45.2182 22.4703 45.4041 22.5918 45.5606 22.7449C45.7171 22.898 45.8412 23.0798 45.9258 23.2798C46.0103 23.4798 46.0537 23.6941 46.0534 23.9105Z" fill="white"/>
<path d="M24.5195 16.4764L27.9563 22.429" stroke="#A4C639" stroke-width="3" stroke-linecap="round" stroke-linejoin="round"/>
<path d="M51.6359 16.4764L48.1992 22.429" stroke="#A4C639" stroke-width="3" stroke-linecap="round" stroke-linejoin="round"/>
<path d="M16.0187 34.4572C16.6622 32.777 18.5459 31.9365 20.2262 32.5799C21.9065 33.2234 22.7469 35.1072 22.1034 36.7874L17.1053 49.8386C16.4619 51.5188 14.5781 52.3593 12.8979 51.7158C11.2176 51.0723 10.3772 49.1886 11.0206 47.5083L16.0187 34.4572Z" fill="#A4C639"/>
</svg>
