<svg viewBox="0 0 430 281" fill="none" xmlns="http://www.w3.org/2000/svg">
<g clip-path="url(#clip0)">
<path d="M320.765 276.901C314.813 272.776 311.197 266.259 312.145 259.915C313.094 253.57 318.966 247.738 326.583 246.391C334.2 245.044 342.883 248.773 345.197 254.877C346.47 243.109 347.937 230.849 355.564 220.828C362.471 211.754 374.432 205.261 387.396 204.1C400.359 202.938 414.008 207.325 422.093 215.718C430.178 224.111 432.158 236.313 426.495 245.949C422.324 253.047 414.639 258.33 406.587 262.628C380.568 276.399 349.361 281.999 318.709 278.397" fill="#F2F2F2"/>
<path d="M409.273 207.569C398.576 214.715 388.763 222.708 379.976 231.432C366.223 245.038 355.095 260.292 346.978 276.664C346.384 277.858 348.748 278.378 349.336 277.197C362.616 250.589 383.818 227.138 411.002 208.987C412.222 208.171 410.483 206.76 409.273 207.569Z" fill="white"/>
<path d="M105.13 279.725H71.3744C70.2338 279.724 69.1403 279.352 68.3338 278.69C67.5272 278.029 67.0736 277.132 67.0723 276.196V218.647C67.0736 217.712 67.5272 216.815 68.3338 216.153C69.1403 215.492 70.2338 215.12 71.3744 215.119H105.13C106.27 215.12 107.364 215.492 108.17 216.153C108.977 216.815 109.431 217.712 109.432 218.647V276.196C109.431 277.132 108.977 278.029 108.17 278.69C107.364 279.352 106.27 279.724 105.13 279.725Z" fill="#E14B5A"/>
<path d="M185.215 280.268H151.46C150.144 280.267 148.882 279.837 147.952 279.074C147.021 278.31 146.498 277.275 146.496 276.196V164.356C146.498 163.277 147.021 162.242 147.952 161.478C148.882 160.715 150.144 160.286 151.46 160.284H185.215C186.532 160.286 187.793 160.715 188.724 161.478C189.655 162.242 190.178 163.277 190.179 164.356V276.196C190.178 277.275 189.655 278.31 188.724 279.074C187.793 279.837 186.532 280.267 185.215 280.268ZM151.46 161.37C150.495 161.371 149.57 161.686 148.887 162.246C148.205 162.806 147.821 163.565 147.82 164.356V276.196C147.821 276.988 148.205 277.747 148.887 278.306C149.57 278.866 150.495 279.181 151.46 279.182H185.215C186.181 279.181 187.106 278.866 187.788 278.306C188.471 277.747 188.855 276.988 188.856 276.196V164.356C188.855 163.565 188.471 162.806 187.788 162.246C187.106 161.686 186.181 161.371 185.215 161.37H151.46Z" fill="#3F3D56"/>
<path d="M265.302 280.268H231.547C230.231 280.267 228.969 279.837 228.039 279.074C227.108 278.31 226.584 277.275 226.583 276.196V93.2349C226.584 92.1554 227.108 91.1204 228.039 90.357C228.969 89.5937 230.231 89.1643 231.547 89.1631H265.302C266.618 89.1643 267.88 89.5937 268.811 90.357C269.741 91.1204 270.265 92.1554 270.266 93.2349V276.196C270.265 277.275 269.741 278.31 268.811 279.074C267.88 279.837 266.618 280.267 265.302 280.268ZM231.547 90.2489C230.582 90.2498 229.657 90.5647 228.974 91.1245C228.292 91.6843 227.908 92.4433 227.907 93.2349V276.196C227.908 276.988 228.292 277.747 228.974 278.306C229.657 278.866 230.582 279.181 231.547 279.182H265.302C266.267 279.181 267.193 278.866 267.875 278.306C268.558 277.747 268.942 276.988 268.943 276.196V93.2349C268.942 92.4433 268.558 91.6843 267.875 91.1245C267.193 90.5647 266.267 90.2498 265.302 90.2489H231.547Z" fill="#3F3D56"/>
<path d="M346.136 279.996H312.38C311.24 279.995 310.146 279.623 309.34 278.962C308.533 278.3 308.079 277.403 308.078 276.467V18.5847C308.079 17.6491 308.533 16.7521 309.34 16.0906C310.146 15.429 311.24 15.0569 312.38 15.0558H346.136C347.276 15.0569 348.37 15.429 349.176 16.0906C349.983 16.7521 350.436 17.6491 350.438 18.5847V276.467C350.436 277.403 349.983 278.3 349.176 278.962C348.37 279.623 347.276 279.995 346.136 279.996Z" fill="#E14B5A"/>
<path d="M136.2 120.721C136.322 119.929 136.231 119.125 135.934 118.365C135.636 117.605 135.14 116.908 134.478 116.322C133.817 115.737 133.007 115.278 132.106 114.977C131.204 114.676 130.234 114.541 129.262 114.581L117.496 96.8773L114.849 104.478L122.909 120.703C123.1 122.038 123.881 123.269 125.104 124.163C126.327 125.057 127.907 125.552 129.545 125.554C131.183 125.556 132.765 125.065 133.992 124.175C135.218 123.284 136.004 122.055 136.2 120.721V120.721Z" fill="#E14B5A"/>
<path d="M45.5469 190.623L52.1 194.548L73.6736 175.68L64.0011 169.888L45.5469 190.623Z" fill="#E14B5A"/>
<path d="M60.2969 207.108L39.6995 194.774L45.5094 188.246L58.1486 195.815C60.2592 197.079 61.6713 198.979 62.0742 201.097C62.477 203.215 61.8377 205.377 60.2969 207.108L60.2969 207.108Z" fill="#2F2E41"/>
<path d="M80.2191 211.397L88.3336 211.397L92.1936 185.723L80.2178 185.724L80.2191 211.397Z" fill="#E14B5A"/>
<path d="M103.983 217.577L78.4811 217.578L78.4807 209.495L94.1298 209.495C96.743 209.495 99.2493 210.346 101.097 211.862C102.945 213.377 103.983 215.433 103.983 217.577Z" fill="#2F2E41"/>
<path d="M104.589 111.264C104.589 111.264 108.56 142.753 98.6322 164.47L91.3517 205.731H78.7761L80.0999 156.869L75.4668 113.436C75.4668 113.436 84.733 93.8913 104.589 111.264Z" fill="#2F2E41"/>
<path d="M61.5677 113.436L74.8051 150.897L48.9922 184.557L61.8986 193.515L91.3518 155.783L82.7475 109.635L61.5677 113.436Z" fill="#2F2E41"/>
<path d="M95.3255 29.4334C104.304 29.4334 111.582 23.4634 111.582 16.099C111.582 8.73457 104.304 2.76453 95.3255 2.76453C86.3475 2.76453 79.0693 8.73457 79.0693 16.099C79.0693 23.4634 86.3475 29.4334 95.3255 29.4334Z" fill="#E14B5A"/>
<path d="M81.7549 34.4425C81.7549 34.4425 91.6829 29.0134 102.935 40.9574L105.913 116.151C105.913 116.151 97.3088 106.378 79.4384 115.608C61.5679 124.837 57.5967 114.522 57.5967 114.522C57.5967 114.522 45.0212 36.8856 81.7549 34.4425Z" fill="#CCCCCC"/>
<path d="M102.134 40.7679C104.989 40.8945 107.687 41.8827 109.707 43.5425C111.728 45.2023 112.929 47.4163 113.079 49.7586L115.179 82.4902L129.078 113.436L121.136 118.865L95.3232 81.9472L90.0383 51.6022C89.7961 50.2114 89.9328 48.7938 90.4386 47.4515C90.9444 46.1092 91.8067 44.8756 92.9635 43.8395C94.1202 42.8033 95.5427 41.9904 97.1283 41.4593C98.714 40.9282 100.424 40.692 102.134 40.7679Z" fill="#CCCCCC"/>
<path d="M83.3803 26.1012C86.0379 28.4233 90.9734 27.1767 91.3197 24.0044C91.3468 23.7582 91.3448 23.5103 91.3138 23.2643C91.135 21.8591 90.1453 20.5834 90.3824 19.0997C90.436 18.7304 90.6037 18.3785 90.8696 18.0773C92.9874 15.7511 97.9586 19.1177 99.9573 17.0119C101.183 15.7207 99.7422 13.6877 100.683 12.2445C101.924 10.3398 105.6 11.2794 107.906 10.2363C110.471 9.07566 110.318 5.84725 108.629 3.88356C106.57 1.48878 102.959 0.210905 99.3936 0.0267226C95.8279 -0.15746 92.2868 0.633202 88.9579 1.69734C85.1756 2.9064 81.4249 4.57738 79.0974 7.30541C76.2668 10.623 75.9944 15.0831 77.41 18.9624C78.2712 21.3222 81.2101 24.205 83.3803 26.1012Z" fill="#2F2E41"/>
<path d="M429.212 280.038H0.787741C0.579125 280.037 0.379255 279.969 0.231955 279.847C0.0846549 279.726 0.00195312 279.562 0.00195312 279.391C0.00195312 279.22 0.0846549 279.056 0.231955 278.935C0.379255 278.813 0.579125 278.745 0.787741 278.745H429.212C429.42 278.745 429.62 278.813 429.767 278.935C429.915 279.056 429.997 279.22 429.997 279.391C429.997 279.562 429.915 279.726 429.767 279.847C429.62 279.969 429.42 280.037 429.212 280.038Z" fill="#3F3D56"/>
</g>
<defs>
<clipPath id="clip0">
<rect width="430" height="280.268" fill="white"/>
</clipPath>
</defs>
</svg>
