<svg viewBox="0 0 550 385" fill="none" xmlns="http://www.w3.org/2000/svg">
<g clip-path="url(#clip0)">
<path d="M59.9731 257.241C59.9731 257.241 54.757 219.069 35.4065 200.146C27.2888 192.208 21.3352 181.418 18.7538 169.116C17.5304 163.292 16.7472 157.328 16.415 151.309" stroke="#535461" stroke-width="2" stroke-miterlimit="10"/>
<path d="M4.27938 139.295C5.90971 143.39 16.701 151.666 16.701 151.666C16.701 151.666 18.0596 136.204 16.4341 132.11C14.8086 128.016 10.7667 126.304 7.40904 128.292C4.05132 130.279 2.65389 135.207 4.27938 139.295Z" fill="#E01600"/>
<path d="M3.27549 167.918C6.46823 170.276 19.2149 170.063 19.2149 170.063C19.2149 170.063 13.4651 156.181 10.2481 153.823C8.71694 152.686 6.90946 152.341 5.18919 152.856C3.46891 153.372 1.96343 154.709 0.975552 156.601C0.520542 157.528 0.218378 158.567 0.0879267 159.652C-0.0425242 160.737 0.00154171 161.845 0.21737 162.907C0.433198 163.969 0.816154 164.962 1.34233 165.824C1.8685 166.687 2.52658 167.399 3.27549 167.918Z" fill="#E01600"/>
<path d="M19.0976 206.41C22.824 206.479 33.7415 198.447 33.7415 198.447C33.7415 198.447 23.0327 189.989 19.2868 189.932C15.5409 189.876 12.4937 193.494 12.4307 198.046C12.3676 202.598 15.3662 206.335 19.0976 206.41Z" fill="#E01600"/>
<path d="M36.4593 232.236C40.1276 233.077 51.9863 227.408 51.9863 227.408C51.9863 227.408 42.5973 216.881 38.9339 216.041C35.2705 215.201 31.7381 218.148 31.054 222.624C30.3698 227.101 32.7959 231.371 36.4593 232.236Z" fill="#E01600"/>
<path d="M32.2622 163.31C30.9909 167.586 20.9517 177.173 20.9517 177.173C20.9517 177.173 18.317 161.962 19.5688 157.686C20.8207 153.409 24.717 151.202 28.2203 152.751C31.7236 154.3 33.5383 159.034 32.2622 163.31Z" fill="#E01600"/>
<path d="M52.2825 193.832C50.0165 197.444 38.0898 202.93 38.0898 202.93C38.0898 202.93 39.2835 187.443 41.5494 183.832C42.6846 182.079 44.2905 180.945 46.0452 180.658C47.7998 180.371 49.5737 180.951 51.0112 182.283C51.7092 182.905 52.2998 183.708 52.7459 184.64C53.1921 185.572 53.4841 186.613 53.6035 187.698C53.7229 188.783 53.6672 189.888 53.4398 190.944C53.2125 192 52.8184 192.983 52.2825 193.832Z" fill="#E01600"/>
<path d="M68.3527 226.75C66.6205 230.776 55.6254 238.663 55.6254 238.663C55.6254 238.663 54.655 223.157 56.3872 219.126C57.2818 217.161 58.7205 215.709 60.4122 215.063C62.1039 214.417 63.9223 214.625 65.4996 215.646C66.2696 216.106 66.9583 216.766 67.5234 217.583C68.0886 218.401 68.518 219.36 68.7854 220.4C69.0527 221.441 69.1522 222.541 69.0778 223.633C69.0034 224.725 68.7566 225.786 68.3527 226.75Z" fill="#E01600"/>
<path opacity="0.25" d="M4.27938 139.295C5.90971 143.39 16.701 151.666 16.701 151.666C16.701 151.666 18.0596 136.204 16.4341 132.11C14.8086 128.016 10.7667 126.304 7.40904 128.292C4.05132 130.279 2.65389 135.207 4.27938 139.295Z" fill="black"/>
<path opacity="0.25" d="M3.27549 167.918C6.46823 170.276 19.2149 170.063 19.2149 170.063C19.2149 170.063 13.4651 156.181 10.2481 153.823C8.71694 152.686 6.90946 152.341 5.18919 152.856C3.46891 153.372 1.96343 154.709 0.975552 156.601C0.520542 157.528 0.218378 158.567 0.0879267 159.652C-0.0425242 160.737 0.00154171 161.845 0.21737 162.907C0.433198 163.969 0.816154 164.962 1.34233 165.824C1.8685 166.687 2.52658 167.399 3.27549 167.918Z" fill="black"/>
<path opacity="0.25" d="M19.0976 206.41C22.824 206.479 33.7415 198.447 33.7415 198.447C33.7415 198.447 23.0327 189.989 19.2868 189.932C15.5409 189.876 12.4937 193.494 12.4307 198.046C12.3676 202.598 15.3662 206.335 19.0976 206.41Z" fill="black"/>
<path opacity="0.25" d="M36.4593 232.236C40.1276 233.077 51.9863 227.408 51.9863 227.408C51.9863 227.408 42.5973 216.881 38.9339 216.041C35.2705 215.201 31.7381 218.148 31.054 222.624C30.3698 227.101 32.7959 231.371 36.4593 232.236Z" fill="black"/>
<path opacity="0.25" d="M32.2622 163.31C30.9909 167.586 20.9517 177.173 20.9517 177.173C20.9517 177.173 18.317 161.962 19.5688 157.686C20.8207 153.409 24.717 151.202 28.2203 152.751C31.7236 154.3 33.5383 159.034 32.2622 163.31Z" fill="black"/>
<path opacity="0.25" d="M52.2825 193.832C50.0165 197.444 38.0898 202.93 38.0898 202.93C38.0898 202.93 39.2835 187.443 41.5494 183.832C42.6846 182.079 44.2905 180.945 46.0452 180.658C47.7998 180.371 49.5737 180.951 51.0112 182.283C51.7092 182.905 52.2998 183.708 52.7459 184.64C53.1921 185.572 53.4841 186.613 53.6035 187.698C53.7229 188.783 53.6672 189.888 53.4398 190.944C53.2125 192 52.8184 192.983 52.2825 193.832Z" fill="black"/>
<path opacity="0.25" d="M68.3527 226.75C66.6205 230.776 55.6254 238.663 55.6254 238.663C55.6254 238.663 54.655 223.157 56.3872 219.126C57.2818 217.161 58.7205 215.709 60.4122 215.063C62.1039 214.417 63.9223 214.625 65.4996 215.646C66.2696 216.106 66.9583 216.766 67.5234 217.583C68.0886 218.401 68.518 219.36 68.7854 220.4C69.0527 221.441 69.1522 222.541 69.0778 223.633C69.0034 224.725 68.7566 225.786 68.3527 226.75Z" fill="black"/>
<path d="M59.3175 256.238C59.3175 256.238 67.2314 218.762 55.8239 191.895C51.0348 180.609 49.191 167.818 50.9038 155.297C51.735 149.34 53.0089 143.5 54.7079 137.86" stroke="#535461" stroke-width="2" stroke-miterlimit="10"/>
<path d="M47.5755 120.88C47.7065 125.426 54.8247 138.33 54.8247 138.33C54.8247 138.33 61.2053 124.862 61.0743 120.31C60.9433 115.758 57.8233 112.209 54.092 112.359C50.3607 112.51 47.4299 116.335 47.5755 120.88Z" fill="#E01600"/>
<path d="M37.1331 146.537C39.2632 150.268 50.991 156.375 50.991 156.375C50.991 156.375 50.3408 140.844 48.2107 137.107C47.1316 135.297 45.563 134.08 43.8192 133.701C42.0754 133.322 40.2852 133.809 38.8071 135.063C38.0886 135.646 37.471 136.415 36.9932 137.321C36.5154 138.227 36.1876 139.25 36.0304 140.328C35.8732 141.405 35.8901 142.513 36.0798 143.581C36.2696 144.65 36.6282 145.656 37.1331 146.537Z" fill="#E01600"/>
<path d="M38.8322 189.556C42.2288 191.437 54.8687 189.519 54.8687 189.519C54.8687 189.519 47.8815 176.508 44.4947 174.596C41.1079 172.684 37.1 174.489 35.5327 178.621C33.9655 182.753 35.4454 187.65 38.8322 189.556Z" fill="#E01600"/>
<path d="M46.1291 221.753C49.2006 224.33 61.9376 225.02 61.9376 225.02C61.9376 225.02 56.8525 210.755 53.781 208.172C52.2977 206.93 50.5059 206.458 48.7647 206.851C47.0235 207.244 45.4616 208.473 44.3921 210.291C43.8901 211.176 43.5355 212.186 43.3506 213.257C43.1657 214.328 43.1545 215.437 43.3177 216.514C43.4809 217.591 43.815 218.612 44.2989 219.514C44.7827 220.416 45.4059 221.178 46.1291 221.753Z" fill="#E01600"/>
<path d="M65.184 156.664C62.6026 159.943 50.2393 163.749 50.2393 163.749C50.2393 163.749 52.8643 148.525 55.4505 145.246C56.7274 143.664 58.4188 142.761 60.1875 142.718C61.9563 142.675 63.6727 143.495 64.9948 145.014C65.6301 145.738 66.1423 146.625 66.4989 147.619C66.8555 148.612 67.0488 149.69 67.0666 150.785C67.0844 151.88 66.9262 152.967 66.6022 153.979C66.2782 154.991 65.7953 155.905 65.184 156.664Z" fill="#E01600"/>
<path d="M73.3267 194.447C70.0563 196.635 57.3145 195.757 57.3145 195.757C57.3145 195.757 63.5495 182.189 66.8199 180.001C68.3833 178.941 70.2 178.689 71.9019 179.295C73.6038 179.902 75.0637 181.322 75.9857 183.267C76.4092 184.218 76.6768 185.271 76.7718 186.362C76.8667 187.452 76.787 188.556 76.5376 189.604C76.2882 190.653 75.8744 191.624 75.322 192.457C74.7696 193.29 74.0904 193.968 73.3267 194.447Z" fill="#E01600"/>
<path d="M77.1057 232.5C74.1944 235.334 61.5156 237.083 61.5156 237.083C61.5156 237.083 65.7856 222.43 68.7066 219.602C70.1259 218.238 71.8915 217.616 73.6502 217.862C75.4089 218.107 77.0312 219.201 78.1926 220.925C78.7418 221.76 79.1514 222.732 79.3955 223.781C79.6396 224.83 79.7129 225.933 79.6108 227.02C79.5087 228.107 79.2334 229.156 78.8022 230.099C78.3711 231.042 77.7934 231.859 77.1057 232.5Z" fill="#E01600"/>
<path opacity="0.1" d="M542.727 349.481C540.659 352.58 538.289 355.32 535.676 357.632C523.847 368.197 507.014 372.567 490.711 375.326C487.085 375.94 483.447 376.494 479.799 376.987C457.197 380.085 434.28 381.119 411.383 381.884C408.103 381.997 404.821 382.104 401.538 382.204C378.446 382.938 355.335 383.671 332.229 384.204C304.489 384.831 276.744 385.201 249.024 384.919C221.808 384.649 194.616 383.778 167.468 381.96C164.858 381.792 162.249 381.611 159.642 381.414C135.866 379.665 111.683 377.025 88.9502 370.799C77.172 367.68 65.6269 363.239 54.4464 357.525C45.7124 352.961 37.3327 347.318 30.6076 340.521C25.3672 335.223 21.1264 329.235 18.4771 322.488C12.3973 306.982 15.6095 289.552 22.5675 274.353C29.5255 259.154 39.9723 245.511 48.9828 231.24C68.1926 200.799 80.7209 162.351 62.9959 131.164C57.9011 122.204 50.5306 114.341 46.382 104.986C40.4138 91.512 41.6948 76.3572 43.8734 61.9612C46.7848 42.8375 52.1658 22.2153 68.8476 10.2709C86.1893 -2.14381 110.8 -1.5168 132.319 2.92239C164.295 9.51849 193.942 22.9866 223.695 35.5267L224.011 35.6583L227.834 37.2635L229.542 37.972C232.036 39.0128 234.542 40.0411 237.058 41.0569L237.975 41.4205H238.043L238.432 41.5773L238.791 41.7152L239.397 41.966C242.503 43.22 245.622 44.4343 248.757 45.6089H248.82C249.257 45.7782 249.689 45.9412 250.125 46.098H250.154C251.943 46.7751 253.735 47.4356 255.531 48.0793L256.147 48.305L256.258 48.3427H256.326C278.768 56.3934 301.961 62.4942 325.946 63.3908C356.209 64.5257 391.518 56.0611 411.611 34.072C431.121 12.7037 467.799 11.0797 494.248 23.9898C519.48 36.2979 535.802 62.3562 534.57 88.3769C532.784 126.254 498.834 155.335 478.581 188.472C469.143 203.921 462.471 222.481 468.969 239.14C480.774 269.406 527.457 276.41 544.342 304.606C552.596 318.45 551.601 336.157 542.727 349.481Z" fill="#E01600"/>
<path d="M151.752 270.81L88.9648 370.78C77.1865 367.661 65.6414 363.219 54.4609 357.506C45.7269 352.941 37.3472 347.298 30.6221 340.501L99.5716 267.361L151.752 270.81Z" fill="#65617D"/>
<path d="M542.727 349.48C540.659 352.579 538.289 355.319 535.677 357.631C523.847 368.196 507.015 372.566 490.711 375.325C487.085 375.94 483.448 376.494 479.799 376.987L413.11 270.81L465.31 267.361L542.727 349.48Z" fill="#65617D"/>
<path d="M253.508 272.873L253.396 275.688L253.362 276.465L250.985 336.031V336.106L250.737 342.978L250.611 346.057L249.063 384.931C221.847 384.661 194.656 383.79 167.508 381.972L201.866 272.904L253.508 272.873Z" fill="#65617D"/>
<path d="M411.397 381.852C408.117 381.965 404.835 382.072 401.552 382.172C378.46 382.906 355.349 383.639 332.243 384.172L305.173 272.873H355.776L411.397 381.852Z" fill="#65617D"/>
<path opacity="0.1" d="M151.752 270.81L88.9648 370.78C77.1865 367.661 65.6414 363.219 54.4609 357.506C45.7269 352.941 37.3472 347.298 30.6221 340.501L99.5716 267.361L151.752 270.81Z" fill="black"/>
<path opacity="0.1" d="M542.727 349.48C540.659 352.579 538.289 355.319 535.677 357.631C523.847 368.196 507.015 372.566 490.711 375.325C487.085 375.94 483.448 376.494 479.799 376.987L413.11 270.81L465.31 267.361L542.727 349.48Z" fill="black"/>
<path opacity="0.1" d="M253.508 272.873L253.396 275.688L253.362 276.465L250.985 336.031V336.106L250.737 342.978L250.611 346.057L249.063 384.931C221.847 384.661 194.656 383.79 167.508 381.972L201.866 272.904L253.508 272.873Z" fill="black"/>
<path opacity="0.1" d="M411.397 381.852C408.117 381.965 404.835 382.072 401.552 382.172C378.46 382.906 355.349 383.639 332.243 384.172L305.173 272.873H355.776L411.397 381.852Z" fill="black"/>
<path d="M285.303 334.2C283.9 334.119 276.244 338.301 276.244 338.301C276.244 338.301 273.818 340.05 267.621 341.172C263.575 341.912 263.036 339.392 263.148 337.555C263.186 336.952 263.289 336.359 263.453 335.793V324.676C263.453 324.676 276.069 314.725 277.04 314.098C277.162 314.029 277.294 313.992 277.428 313.992C278.985 313.91 283.449 315.96 285.861 318.161C288.525 320.6 291.916 319.108 291.916 319.108C291.916 319.108 298.496 312.255 300.228 317.271C300.331 317.559 300.41 317.859 300.466 318.168C301.732 324.795 286.71 334.256 285.303 334.2Z" fill="#3F3D56"/>
<path opacity="0.1" d="M263.454 327.347V324.676C263.454 324.676 276.07 314.725 277.04 314.098C277.163 314.029 277.295 313.992 277.428 313.992C278.006 314.763 278.525 315.453 278.836 315.873C279.753 317.064 271.383 330.632 263.454 327.347Z" fill="black"/>
<path d="M261.518 325.422L260.358 318.682C260.358 318.682 260.358 312.857 258.757 311.728C257.156 310.6 252.794 271.499 252.794 271.499C252.794 271.499 252.939 262.859 251.775 261.731C250.61 260.602 251.775 259.361 251.775 259.361C251.77 258.117 251.596 256.884 251.26 255.718C250.879 254.45 250.613 253.128 250.47 251.78C250.47 251.78 251.052 248.959 250.47 248.213C250.062 247.686 250.581 246.701 249.63 244.733C249.017 243.563 248.271 242.519 247.417 241.635C244.123 238.036 247.374 197.268 248.267 186.791C248.402 185.23 248.485 184.346 248.485 184.346H256.248L257.219 188.854L258.767 197.187C258.767 197.187 259.786 198.058 259.786 199.187C259.786 200.316 265.89 224.167 265.89 224.167C266.337 225.128 266.727 226.132 267.054 227.17C267.2 227.923 268.51 229.239 268.51 229.239C268.26 229.947 268.131 230.716 268.131 231.493C268.131 232.271 268.26 233.04 268.51 233.747C269.378 235.998 271.853 245.391 270.98 249.899C270.106 254.407 269.087 254.784 269.087 254.784C269.087 254.784 268.219 258.119 269.67 259.361C271.12 260.602 270.106 262.859 270.106 262.859L271.999 283.902C271.999 283.902 271.853 293.307 274.032 296.674C276.21 300.041 276.501 308.129 276.501 308.129L274.861 309.032L274.565 309.201L274.468 309.258C274.468 309.258 277.812 313.766 278.835 315.083C279.859 316.399 269.946 332.194 261.518 325.422Z" fill="#65617D"/>
<path opacity="0.1" d="M278.816 315.101C277.938 318.5 269.112 330.777 261.518 324.676L260.358 317.936C262.435 315.76 268.913 309.408 274.551 308.468L274.454 308.524L274.847 309.051L274.551 309.22L274.454 309.277C274.454 309.277 277.797 313.785 278.816 315.101Z" fill="black"/>
<path d="M261.518 325.422L260.358 318.682C262.435 316.506 268.913 310.154 274.551 309.214L274.454 309.27C274.454 309.27 277.797 313.779 278.821 315.095C279.845 316.412 269.946 332.194 261.518 325.422Z" fill="#65617D"/>
<path d="M283.417 320.042C283.618 320.042 283.781 319.832 283.781 319.572C283.781 319.312 283.618 319.102 283.417 319.102C283.216 319.102 283.053 319.312 283.053 319.572C283.053 319.832 283.216 320.042 283.417 320.042Z" fill="white"/>
<path d="M281.044 319.578C281.245 319.578 281.407 319.368 281.407 319.108C281.407 318.848 281.245 318.638 281.044 318.638C280.843 318.638 280.68 318.848 280.68 319.108C280.68 319.368 280.843 319.578 281.044 319.578Z" fill="white"/>
<path d="M285.455 320.512C285.656 320.512 285.819 320.302 285.819 320.042C285.819 319.783 285.656 319.572 285.455 319.572C285.254 319.572 285.091 319.783 285.091 320.042C285.091 320.302 285.254 320.512 285.455 320.512Z" fill="white"/>
<path d="M278.526 319.108C278.727 319.108 278.89 318.897 278.89 318.638C278.89 318.378 278.727 318.167 278.526 318.167C278.325 318.167 278.162 318.378 278.162 318.638C278.162 318.897 278.325 319.108 278.526 319.108Z" fill="white"/>
<path opacity="0.1" d="M285.303 334.2C283.9 334.119 276.244 338.301 276.244 338.301C276.244 338.301 273.818 340.05 267.621 341.172C263.575 341.912 263.036 339.392 263.148 337.554C264.172 338.153 265.328 338.26 266.408 337.855C269.169 336.921 278.718 334.946 278.718 334.946C278.718 334.946 285.026 331.974 285.211 330.281L300.228 317.271C300.331 317.559 300.41 317.859 300.466 318.167C301.732 324.795 286.71 334.256 285.303 334.2Z" fill="black"/>
<path d="M278.219 186.766H274.73V331.585H278.219V186.766Z" fill="#E01600"/>
<path d="M277.953 188.421C278.065 186.971 278.576 185.62 279.393 184.614C280.21 183.608 281.278 183.013 282.405 182.937C283.532 182.861 284.643 183.309 285.536 184.2C286.429 185.092 287.046 186.366 287.274 187.794C287.686 188.143 288.073 188.54 288.429 188.979C288.615 189.202 288.851 189.346 289.103 189.39C289.354 189.434 289.611 189.377 289.837 189.226C290.062 189.075 290.247 188.838 290.365 188.547C290.483 188.256 290.529 187.926 290.496 187.6C290.493 187.565 290.493 187.529 290.496 187.493C290.336 186.038 289.935 184.645 289.321 183.407C288.707 182.17 287.894 181.118 286.937 180.323C285.981 179.528 284.903 179.009 283.777 178.8C282.651 178.591 281.504 178.698 280.413 179.113C279.322 179.528 278.312 180.242 277.454 181.206C276.595 182.17 275.907 183.362 275.437 184.7C274.967 186.038 274.725 187.492 274.728 188.961C274.731 190.431 274.978 191.883 275.454 193.218C275.913 191.342 276.78 189.677 277.953 188.421Z" fill="#E01600"/>
<path d="M279.524 326.425H273.639V337.04H279.524V326.425Z" fill="#E01600"/>
<path d="M248.674 58.5121C247.457 60.5495 246.476 62.8054 245.763 65.2086C243.453 73.0837 245.185 79.429 245.185 79.429C245.185 79.429 224.156 73.416 226.194 70.4127C227.426 68.5881 228.445 61.5719 229.057 56.3302C229.454 52.913 229.682 50.2482 229.682 50.2482C229.682 50.2482 254.972 47.8719 248.674 58.5121Z" fill="#FABDBD"/>
<path d="M254.715 340.47C254.456 342.314 253.708 343.983 252.6 345.191C250.998 346.941 235.738 347.568 232.638 346.069C229.537 344.571 219.653 344 217.179 343.875C214.704 343.749 213.743 340.809 213.205 339.367C213.054 338.953 213.166 338.044 213.418 336.953C214.034 334.275 215.471 330.501 215.776 330.099C216.009 329.798 216.232 328.569 216.383 327.491C216.514 326.557 216.601 325.735 216.601 325.735C223.234 331.579 231.958 321.647 231.958 321.647C232.285 321.422 232.659 321.334 233.026 321.397C234.695 321.66 236.515 324.488 236.515 325.735C236.515 327.259 241.114 330.124 241.114 330.124C242.425 332.068 248.237 335.699 248.237 335.699C248.237 335.699 252.211 335.824 253.958 337.761C254.251 338.094 254.474 338.516 254.606 338.99C254.739 339.464 254.776 339.973 254.715 340.47Z" fill="#3F3D56"/>
<path opacity="0.1" d="M254.715 340.47C254.456 342.313 253.708 343.983 252.6 345.191C250.998 346.941 235.738 347.568 232.638 346.069C229.537 344.571 219.653 344 217.179 343.875C214.704 343.749 213.743 340.809 213.205 339.367C213.054 338.953 213.166 338.044 213.418 336.953C215.596 337.643 217.743 338.491 219.847 339.492C222.948 341.059 229.392 343.31 230.522 342.627C230.503 342.646 245.792 348.157 254.715 340.47Z" fill="black"/>
<path opacity="0.1" d="M249.63 244.752C249.017 243.582 248.271 242.538 247.418 241.654C244.123 238.055 247.374 197.287 248.267 186.81C252.076 186.534 254.744 186.628 254.972 187.368C255.758 189.907 250.668 235.585 249.63 244.752Z" fill="black"/>
<path opacity="0.1" d="M233.026 321.422V323.541C222.351 337.692 218.081 332.852 216.383 327.504C216.514 326.569 216.601 325.748 216.601 325.748C223.234 331.592 231.958 321.66 231.958 321.66C232.286 321.439 232.659 321.355 233.026 321.422Z" fill="black"/>
<path d="M254.133 190.679C253.502 203.269 248.592 246.35 248.592 246.35C248.592 246.35 245.831 262.126 245.249 262.69C244.666 263.254 241.037 266.452 241.037 266.452C241.037 266.452 240.891 273.782 239.727 275.857C238.562 277.933 238.125 283.187 238.125 283.187C238.125 283.187 236.238 293.702 235.656 298.962C235.073 304.223 233.04 311.358 233.04 311.358V322.82C219.619 340.608 216.315 328.388 215.539 322.87C215.426 322.107 215.348 321.337 215.306 320.563L222.865 261.21C222.865 261.21 224.462 258.389 224.171 256.89C223.879 255.392 224.753 253.504 224.753 253.504L224.729 250.125C224.729 250.125 226.5 247.121 224.729 245.429C222.958 243.736 224.729 230.964 224.729 230.964C224.729 230.964 222.72 223.64 223.758 221.559C224.797 219.477 223.758 216.11 224.481 214.229C225.204 212.348 224.481 214.229 221.866 209.156C220.497 206.51 219.333 201.714 218.528 197.739C217.79 194.083 217.358 191.124 217.358 191.124C217.358 191.124 253.264 184.553 254.138 187.362C254.249 188.463 254.247 189.578 254.133 190.679Z" fill="#65617D"/>
<path opacity="0.1" d="M248.674 58.5121C247.457 60.5495 246.476 62.8054 245.763 65.2086C244.387 65.7727 242.951 66.0582 241.507 66.055C236.335 66.055 233.467 61.133 231.027 55.7596C230.915 55.515 229.159 56.581 229.057 56.3302C229.455 52.913 229.683 50.2482 229.683 50.2482C229.683 50.2482 254.972 47.8719 248.674 58.5121Z" fill="black"/>
<path d="M255.555 47.5269C255.559 51.7601 254.421 55.8627 252.335 59.1274C250.25 62.3921 247.349 64.6142 244.131 65.4108C240.914 66.2073 237.582 65.5283 234.711 63.4909C231.839 61.4534 229.608 58.1851 228.401 54.2495C227.195 50.3139 227.089 45.9577 228.101 41.9318C229.114 37.906 231.182 34.4628 233.948 32.196C236.715 29.9292 240.007 28.9808 243.257 29.5143C246.507 30.0478 249.511 32.0298 251.751 35.1185C254.192 38.4803 255.552 42.9166 255.555 47.5269Z" fill="#FABDBD"/>
<path opacity="0.1" d="M254.133 190.679C249.387 191.757 240.765 193.87 240.062 195.137C239.091 196.886 231.813 197.387 227.446 198.14C224.937 198.573 221.259 198.215 218.489 197.739C217.751 194.083 217.319 191.124 217.319 191.124C217.319 191.124 253.225 184.553 254.099 187.362C254.223 188.461 254.234 189.576 254.133 190.679Z" fill="black"/>
<path d="M257.205 188.873C257.205 188.873 241.033 192.252 240.062 194.008C239.092 195.764 231.814 196.259 227.447 197.011C223.08 197.764 215.239 196.133 214.656 195.632C211.26 192.704 212.91 158.319 214.365 154.055C215.821 149.792 215.336 126.009 213.977 116.491C212.618 106.973 214.656 95.079 214.656 95.079C214.656 95.079 216.689 86.6897 216.306 84.9341C215.923 83.1785 218.247 79.429 218.247 79.429C218.247 79.429 221.833 71.7858 223.672 70.6509C224.009 70.4418 224.307 70.1415 224.546 69.7705C224.786 69.3994 224.961 68.9663 225.059 68.5003C225.404 67.1146 225.36 65.3653 225.419 63.8918C225.516 61.3838 227.452 61.3838 227.452 61.3838C232.978 62.5061 245.963 73.0273 245.963 73.0273C245.477 75.4036 248.578 82.169 248.578 82.169C248.631 82.2756 248.675 82.3885 248.724 82.5076C252.12 90.7778 254.59 116.103 254.59 116.103C254.59 116.103 254.76 128.197 254.731 137.101C254.731 141.546 254.648 145.196 254.488 146.155C254.206 147.86 254.764 155.779 255.332 163.316C255.72 168.526 256.118 173.549 256.24 176.207C256.56 182.734 257.205 188.873 257.205 188.873Z" fill="#E01600"/>
<path opacity="0.1" d="M243.056 154.312C243.056 154.312 238.689 167.837 239.858 169.837C241.028 171.837 243.056 154.312 243.056 154.312Z" fill="black"/>
<path opacity="0.1" d="M248.48 160.821C248.48 160.821 243.541 170.853 245.38 172.84C247.219 174.828 248.48 160.821 248.48 160.821Z" fill="black"/>
<path opacity="0.1" d="M233.026 319.045V322.425C219.605 340.213 216.301 327.993 215.524 322.475C217.965 325.184 223.564 328.557 233.026 319.045Z" fill="black"/>
<path d="M233.026 319.422V322.801C219.605 340.589 216.301 328.369 215.524 322.851C217.965 325.56 223.564 328.933 233.026 319.422Z" fill="#65617D"/>
<path d="M231.429 329.034C231.63 329.034 231.793 328.823 231.793 328.563C231.793 328.304 231.63 328.093 231.429 328.093C231.228 328.093 231.065 328.304 231.065 328.563C231.065 328.823 231.228 329.034 231.429 329.034Z" fill="white"/>
<path d="M237.383 333.755C237.584 333.755 237.747 333.544 237.747 333.285C237.747 333.025 237.584 332.814 237.383 332.814C237.182 332.814 237.02 333.025 237.02 333.285C237.02 333.544 237.182 333.755 237.383 333.755Z" fill="white"/>
<path d="M235.103 331.817C235.304 331.817 235.467 331.607 235.467 331.347C235.467 331.087 235.304 330.877 235.103 330.877C234.902 330.877 234.739 331.087 234.739 331.347C234.739 331.607 234.902 331.817 235.103 331.817Z" fill="white"/>
<path d="M239.227 335.391C239.428 335.391 239.591 335.181 239.591 334.921C239.591 334.661 239.428 334.451 239.227 334.451C239.026 334.451 238.863 334.661 238.863 334.921C238.863 335.181 239.026 335.391 239.227 335.391Z" fill="white"/>
<path d="M233.39 330.413C233.591 330.413 233.754 330.202 233.754 329.943C233.754 329.683 233.591 329.472 233.39 329.472C233.189 329.472 233.026 329.683 233.026 329.943C233.026 330.202 233.189 330.413 233.39 330.413Z" fill="white"/>
<path opacity="0.1" d="M235.787 208.655C235.787 208.655 232.284 220.004 228.13 220.43C223.977 220.856 235.787 208.655 235.787 208.655Z" fill="black"/>
<path opacity="0.1" d="M236.369 225.941C236.369 225.941 230.843 238.086 229.198 238.212C227.553 238.337 236.369 225.941 236.369 225.941Z" fill="black"/>
<path opacity="0.1" d="M239.228 266.759C239.228 266.759 232.376 271.393 233.939 271.775C235.501 272.158 239.228 266.759 239.228 266.759Z" fill="black"/>
<path opacity="0.1" d="M225.612 266.759C225.612 266.759 232.498 263.129 233.706 263.129C234.914 263.129 225.612 266.759 225.612 266.759Z" fill="black"/>
<path opacity="0.1" d="M263.139 251.987C263.139 251.987 267.865 250.482 268.059 251.987C268.253 253.492 263.139 251.987 263.139 251.987Z" fill="black"/>
<path opacity="0.1" d="M267.671 259.386C267.671 259.386 263.503 259.499 264.085 261.267C264.667 263.035 267.671 259.386 267.671 259.386Z" fill="black"/>
<path opacity="0.1" d="M248.723 83.2725C245.142 81.4605 238.897 77.9681 236.078 74.4129C233.259 70.8578 228.086 69.6853 225.059 69.259C225.403 67.8733 225.359 66.1239 225.418 64.6505C225.515 62.1425 227.451 62.1425 227.451 62.1425C232.977 63.2648 245.962 73.7859 245.962 73.7859C245.477 76.1623 248.577 82.9277 248.577 82.9277C248.63 83.0405 248.674 83.1534 248.723 83.2725Z" fill="black"/>
<path d="M248.723 82.5202C245.142 80.7081 238.897 77.2157 236.078 73.6669C233.259 70.118 228.086 68.933 225.059 68.5066C225.403 67.1209 225.359 65.3716 225.418 63.8981C225.515 61.3901 227.451 61.3901 227.451 61.3901C232.977 62.5124 245.962 73.0336 245.962 73.0336C245.477 75.4099 248.577 82.1753 248.577 82.1753C248.63 82.2882 248.674 82.401 248.723 82.5202Z" fill="#E01600"/>
<path opacity="0.1" d="M255.331 163.329C249.577 158.501 241.507 150.312 241.507 149.804C241.507 149.177 238.208 144.543 238.208 144.543L231.716 129.301L229.683 123.031L235.505 115.143L248.203 125.658L251.6 133.671C252.727 134.704 253.781 135.865 254.749 137.139C254.749 141.584 254.667 145.233 254.506 146.192C254.206 147.873 254.764 155.792 255.331 163.329Z" fill="black"/>
<path d="M229.975 121.501L231.717 129.301L238.51 143.039C238.51 143.039 241.804 147.672 241.804 148.299C241.804 148.926 253.935 161.071 259.054 164.451C264.173 167.83 270.699 170.608 271.184 173.041C271.669 175.474 274.581 193.632 282.829 187.744C291.078 181.857 280.505 168.583 280.505 168.583L273.712 160.821C273.712 160.821 259.219 146.167 257.986 141.289C256.754 136.411 251.906 132.148 251.906 132.148L248.51 124.128L235.817 113.613L229.975 121.501Z" fill="#FABDBD"/>
<path opacity="0.1" d="M227.547 80.1751C227.547 80.1751 215.728 87.1913 219.41 98.3583C223.093 109.525 231.133 130.078 231.133 130.078C231.133 130.078 230.168 122.899 232.298 122.272C234.428 121.645 248.722 124.724 248.722 124.724C248.722 124.724 244.797 116.385 245.476 111.626C246.156 106.867 240.343 76.0431 227.547 80.1751Z" fill="black"/>
<path opacity="0.1" d="M228.712 79.0528C228.712 79.0528 216.892 86.0627 220.57 97.1921C224.248 108.321 232.298 128.925 232.298 128.925C232.298 128.925 231.327 121.752 233.462 121.125C235.597 120.498 249.062 123.752 249.062 123.752C249.062 123.752 245.961 115.237 246.636 110.478C247.31 105.719 241.517 74.9146 228.712 79.0528Z" fill="black"/>
<path d="M228.129 79.4227C228.129 79.4227 216.31 86.4389 219.992 97.6059C223.675 108.773 231.715 129.326 231.715 129.326C231.715 129.326 230.745 122.153 232.88 121.526C235.015 120.899 248.48 124.153 248.48 124.153C248.48 124.153 245.379 115.639 246.053 110.88C246.728 106.121 240.925 75.2908 228.129 79.4227Z" fill="#E01600"/>
<path opacity="0.1" d="M251.751 35.1185C250.106 35.8207 248.355 36.2283 246.899 35.1687C245.894 34.4476 245.138 33.0933 243.988 32.8111C242.954 32.5541 241.896 33.3253 241.231 34.3786C240.614 35.4874 240.123 36.706 239.776 37.9964C239.042 40.251 238.145 42.4112 237.097 44.4483C236.447 45.7023 235.584 47.0316 234.419 47.0943C232.823 47.1883 231.745 44.9123 230.202 44.3606C226.432 43 228.611 48.3671 229.164 50.3923C229.711 52.3913 229.903 54.5232 229.727 56.631C229.602 56.6683 229.476 56.6935 229.348 56.7063C227.63 52.8492 227.066 48.3117 227.763 43.9531C228.46 39.5946 230.37 35.7178 233.131 33.0572C235.892 30.3966 239.312 29.1369 242.744 29.5168C246.176 29.8967 249.38 31.8898 251.751 35.1185Z" fill="black"/>
<path d="M229.94 43.9718C231.478 44.5236 232.555 46.7996 234.151 46.7118C235.321 46.6429 236.184 45.3199 236.83 44.0596C237.878 42.0292 238.774 39.8752 239.508 37.6265C239.856 36.336 240.346 35.1174 240.964 34.0087C241.633 32.9553 242.686 32.1841 243.72 32.4412C244.846 32.7234 245.603 34.0777 246.631 34.7987C248.465 36.1217 250.746 35.1624 252.706 34.1717C253.677 33.6952 254.739 33.0055 254.904 31.7139C255.021 30.8047 254.618 29.8893 254.71 28.9739C254.802 28.0584 255.326 27.4189 255.681 26.6665C256.035 25.9141 256.239 24.8294 255.739 24.2212C255.375 23.7823 254.807 23.8136 254.341 23.5942C253.182 23.011 252.886 20.9984 251.852 20.0955C250.736 19.1236 249.247 19.7757 247.898 19.8572C245.957 19.9701 244.147 18.8164 242.347 17.8947C240.547 16.973 238.494 16.2645 236.713 17.2301C235.651 17.8132 234.826 18.9104 233.923 19.8384C232.158 21.6343 230.051 22.7822 227.824 23.1615C226.728 23.3496 225.529 23.381 224.665 24.2651C223.578 25.3811 223.414 27.4377 223.622 29.2121C223.831 30.9866 224.316 32.7296 224.204 34.5103C224.03 37.3381 222.395 39.6643 221.851 42.4106C221.73 42.8487 221.689 43.3167 221.73 43.7787C221.772 44.2407 221.894 44.6842 222.089 45.0754C222.412 45.4911 222.783 45.8381 223.19 46.1037C223.711 46.5421 224.151 47.1232 224.479 47.8059C224.807 48.4885 225.015 49.2559 225.088 50.0538C225.16 50.8626 225.088 51.684 225.185 52.4866C225.378 53.7141 225.936 54.7949 226.739 55.498C227.541 56.201 228.525 56.4704 229.479 56.2486C229.653 54.1408 229.46 52.0095 228.916 50.0099C228.343 47.9784 226.17 42.6426 229.94 43.9718Z" fill="#7C5C5C"/>
<g opacity="0.1">
<path opacity="0.1" d="M252.571 21.011C252.585 21.0427 252.601 21.0722 252.62 21.0988L252.571 21.011Z" fill="black"/>
<path opacity="0.1" d="M255.623 26.5599C255.992 25.8138 256.186 24.7165 255.681 24.1146C255.597 24.0168 255.502 23.9364 255.4 23.8763C255.406 24.43 255.281 24.9728 255.04 25.4313C254.672 26.1774 254.153 26.8609 254.07 27.7387C253.988 28.6165 254.376 29.5633 254.264 30.4724C254.099 31.7703 253.012 32.4538 252.066 32.9303C250.125 33.9147 247.825 34.8803 245.986 33.5573C244.987 32.83 244.23 31.4819 243.104 31.1998C242.071 30.9427 241.013 31.7139 240.348 32.7673C239.729 33.8752 239.239 35.094 238.892 36.3851C238.156 38.6385 237.26 40.7984 236.214 42.837C235.564 44.091 234.705 45.4202 233.536 45.4829C231.939 45.5707 230.862 43.301 229.319 42.7492C225.549 41.3886 227.727 46.7558 228.281 48.781C228.829 50.7903 229.021 52.9329 228.843 55.051C228.214 55.2003 227.566 55.1354 226.962 54.8628C226.358 54.5902 225.819 54.1192 225.398 53.4961C225.749 54.4506 226.333 55.23 227.059 55.7147C227.786 56.1995 228.616 56.3628 229.421 56.1796C229.599 54.0723 229.408 51.9402 228.863 49.9409C228.31 47.9157 226.131 42.5485 229.901 43.9029C231.444 44.4609 232.521 46.7307 234.118 46.6429C235.282 46.5802 236.146 45.2509 236.791 43.9969C237.84 41.9571 238.738 39.795 239.475 37.5388C239.822 36.2483 240.312 35.0297 240.93 33.921C241.242 33.37 241.662 32.9354 242.146 32.6613C242.63 32.3871 243.161 32.2831 243.686 32.3597C244.812 32.6419 245.569 33.9899 246.569 34.711C248.408 36.0402 250.688 35.0747 252.648 34.084C253.619 33.6075 254.681 32.924 254.842 31.6261C254.958 30.717 254.555 29.8015 254.652 28.8924C254.749 27.9832 255.254 27.3061 255.623 26.5599Z" fill="black"/>
<path opacity="0.1" d="M222.555 44.8497C222.289 44.624 221.997 44.4296 221.745 44.1788C221.798 44.4586 221.896 44.7212 222.031 44.95C222.356 45.3655 222.73 45.7125 223.138 45.9783C223.481 46.2684 223.788 46.6235 224.05 47.0317C223.711 46.1453 223.195 45.392 222.555 44.8497Z" fill="black"/>
</g>
<path opacity="0.1" d="M256.72 44.2854C256.72 44.2854 252.765 40.6989 250.412 44.5675H248.995C247.578 39.307 240.567 41.746 240.567 41.746L231.008 43.765L231.187 44.5675L240.567 43.5769C240.567 43.5769 240.785 48.5114 242.056 50.1103C243.328 51.7091 246.088 50.8125 246.088 50.8125C247.758 50.5366 248.558 47.1508 248.854 45.483L250.222 45.5833C249.975 47.2825 249.81 50.5993 252.047 51.753C255.104 53.3017 256.074 49.778 256.074 49.778C256.074 49.778 257.083 45.2259 256.72 44.2854Z" fill="black"/>
<path d="M256.72 43.8966C256.72 43.8966 252.765 40.3101 250.412 44.1788H248.995C247.578 38.9182 240.567 41.3572 240.567 41.3572L231.008 43.3825L231.187 44.1788L240.567 43.1944C240.567 43.1944 240.785 48.1226 242.056 49.7215C243.327 51.3203 246.088 50.4237 246.088 50.4237C247.758 50.1478 248.558 46.762 248.854 45.0942L250.222 45.1945C249.975 46.8937 249.81 50.2105 252.047 51.3642C255.099 52.9129 256.045 49.3892 256.045 49.3892C256.045 49.3892 257.083 44.8496 256.72 43.8966Z" fill="#3F3D56"/>
<path d="M285.303 334.2C283.9 334.119 276.244 338.301 276.244 338.301C276.244 338.301 273.818 340.05 267.621 341.172C263.575 341.912 263.036 339.392 263.148 337.555C263.186 336.952 263.289 336.359 263.453 335.793V324.676C263.453 324.676 276.069 314.725 277.04 314.098C277.162 314.029 277.294 313.992 277.428 313.992C278.985 313.91 283.449 315.96 285.861 318.161C288.525 320.6 291.916 319.108 291.916 319.108C291.916 319.108 298.496 312.255 300.228 317.271C300.331 317.559 300.41 317.859 300.466 318.168C301.732 324.795 286.71 334.256 285.303 334.2Z" fill="#3F3D56"/>
<path opacity="0.1" d="M263.454 327.347V324.676C263.454 324.676 276.07 314.725 277.04 314.098C277.163 314.029 277.295 313.992 277.428 313.992C278.006 314.763 278.525 315.453 278.836 315.873C279.753 317.064 271.383 330.632 263.454 327.347Z" fill="black"/>
<path d="M261.518 325.422L260.358 318.682C260.358 318.682 260.358 312.857 258.757 311.728C257.156 310.6 252.794 271.499 252.794 271.499C252.794 271.499 252.939 262.859 251.775 261.731C250.61 260.602 251.775 259.361 251.775 259.361C251.77 258.117 251.596 256.884 251.26 255.718C250.879 254.45 250.613 253.128 250.47 251.78C250.47 251.78 251.052 248.959 250.47 248.213C250.062 247.686 250.581 246.701 249.63 244.733C249.017 243.563 248.271 242.519 247.417 241.635C244.123 238.036 247.374 197.268 248.267 186.791C248.402 185.23 248.485 184.346 248.485 184.346H256.248L257.219 188.854L258.767 197.187C258.767 197.187 259.786 198.058 259.786 199.187C259.786 200.316 265.89 224.167 265.89 224.167C266.337 225.128 266.727 226.132 267.054 227.17C267.2 227.923 268.51 229.239 268.51 229.239C268.26 229.947 268.131 230.716 268.131 231.493C268.131 232.271 268.26 233.04 268.51 233.747C269.378 235.998 271.853 245.391 270.98 249.899C270.106 254.407 269.087 254.784 269.087 254.784C269.087 254.784 268.219 258.119 269.67 259.361C271.12 260.602 270.106 262.859 270.106 262.859L271.999 283.902C271.999 283.902 271.853 293.307 274.032 296.674C276.21 300.041 276.501 308.129 276.501 308.129L274.861 309.032L274.565 309.201L274.468 309.258C274.468 309.258 277.812 313.766 278.835 315.083C279.859 316.399 269.946 332.194 261.518 325.422Z" fill="#65617D"/>
<path opacity="0.1" d="M278.816 315.101C277.938 318.5 269.112 330.777 261.518 324.676L260.358 317.936C262.435 315.76 268.913 309.408 274.551 308.468L274.454 308.524L274.847 309.051L274.551 309.22L274.454 309.277C274.454 309.277 277.797 313.785 278.816 315.101Z" fill="black"/>
<path d="M261.518 325.422L260.358 318.682C262.435 316.506 268.913 310.154 274.551 309.214L274.454 309.27C274.454 309.27 277.797 313.779 278.821 315.095C279.845 316.412 269.946 332.194 261.518 325.422Z" fill="#65617D"/>
<path d="M283.417 320.042C283.618 320.042 283.781 319.832 283.781 319.572C283.781 319.312 283.618 319.102 283.417 319.102C283.216 319.102 283.053 319.312 283.053 319.572C283.053 319.832 283.216 320.042 283.417 320.042Z" fill="white"/>
<path d="M281.044 319.578C281.245 319.578 281.407 319.368 281.407 319.108C281.407 318.848 281.245 318.638 281.044 318.638C280.843 318.638 280.68 318.848 280.68 319.108C280.68 319.368 280.843 319.578 281.044 319.578Z" fill="white"/>
<path d="M285.455 320.512C285.656 320.512 285.819 320.302 285.819 320.042C285.819 319.783 285.656 319.572 285.455 319.572C285.254 319.572 285.091 319.783 285.091 320.042C285.091 320.302 285.254 320.512 285.455 320.512Z" fill="white"/>
<path d="M278.526 319.108C278.727 319.108 278.89 318.897 278.89 318.638C278.89 318.378 278.727 318.167 278.526 318.167C278.325 318.167 278.162 318.378 278.162 318.638C278.162 318.897 278.325 319.108 278.526 319.108Z" fill="white"/>
<path opacity="0.1" d="M285.303 334.2C283.9 334.119 276.244 338.301 276.244 338.301C276.244 338.301 273.818 340.05 267.621 341.172C263.575 341.912 263.036 339.392 263.148 337.554C264.172 338.153 265.328 338.26 266.408 337.855C269.169 336.921 278.718 334.946 278.718 334.946C278.718 334.946 285.026 331.974 285.211 330.281L300.228 317.271C300.331 317.559 300.41 317.859 300.466 318.167C301.732 324.795 286.71 334.256 285.303 334.2Z" fill="black"/>
<path d="M278.219 186.766H274.73V331.585H278.219V186.766Z" fill="#E01600"/>
<path d="M277.953 188.421C278.065 186.971 278.576 185.62 279.393 184.614C280.21 183.608 281.278 183.013 282.405 182.937C283.532 182.861 284.643 183.309 285.536 184.2C286.429 185.092 287.046 186.366 287.274 187.794C287.686 188.143 288.073 188.54 288.429 188.979C288.615 189.202 288.851 189.346 289.103 189.39C289.354 189.434 289.611 189.377 289.837 189.226C290.062 189.075 290.247 188.838 290.365 188.547C290.483 188.256 290.529 187.926 290.496 187.6C290.493 187.565 290.493 187.529 290.496 187.493C290.336 186.038 289.935 184.645 289.321 183.407C288.707 182.17 287.894 181.118 286.937 180.323C285.981 179.528 284.903 179.009 283.777 178.8C282.651 178.591 281.504 178.698 280.413 179.113C279.322 179.528 278.312 180.242 277.454 181.206C276.595 182.17 275.907 183.362 275.437 184.7C274.967 186.038 274.725 187.492 274.728 188.961C274.731 190.431 274.978 191.883 275.454 193.218C275.913 191.342 276.78 189.677 277.953 188.421Z" fill="#E01600"/>
<path d="M279.524 326.425H273.639V337.04H279.524V326.425Z" fill="#E01600"/>
<path d="M248.674 58.5121C247.457 60.5495 246.476 62.8054 245.763 65.2086C243.453 73.0837 245.185 79.429 245.185 79.429C245.185 79.429 224.156 73.416 226.194 70.4127C227.426 68.5881 228.445 61.5719 229.057 56.3302C229.454 52.913 229.682 50.2482 229.682 50.2482C229.682 50.2482 254.972 47.8719 248.674 58.5121Z" fill="#FABDBD"/>
<path d="M254.715 340.47C254.456 342.314 253.708 343.983 252.6 345.191C250.998 346.941 235.738 347.568 232.638 346.069C229.537 344.571 219.653 344 217.179 343.875C214.704 343.749 213.743 340.809 213.205 339.367C213.054 338.953 213.166 338.044 213.418 336.953C214.034 334.275 215.471 330.501 215.776 330.099C216.009 329.798 216.232 328.569 216.383 327.491C216.514 326.557 216.601 325.735 216.601 325.735C223.234 331.579 231.958 321.647 231.958 321.647C232.285 321.422 232.659 321.334 233.026 321.397C234.695 321.66 236.515 324.488 236.515 325.735C236.515 327.259 241.114 330.124 241.114 330.124C242.425 332.068 248.237 335.699 248.237 335.699C248.237 335.699 252.211 335.824 253.958 337.761C254.251 338.094 254.474 338.516 254.606 338.99C254.739 339.464 254.776 339.973 254.715 340.47Z" fill="#3F3D56"/>
<path opacity="0.1" d="M254.715 340.47C254.456 342.313 253.708 343.983 252.6 345.191C250.998 346.941 235.738 347.568 232.638 346.069C229.537 344.571 219.653 344 217.179 343.875C214.704 343.749 213.743 340.809 213.205 339.367C213.054 338.953 213.166 338.044 213.418 336.953C215.596 337.643 217.743 338.491 219.847 339.492C222.948 341.059 229.392 343.31 230.522 342.627C230.503 342.646 245.792 348.157 254.715 340.47Z" fill="black"/>
<path opacity="0.1" d="M249.63 244.752C249.017 243.582 248.271 242.538 247.418 241.654C244.123 238.055 247.374 197.287 248.267 186.81C252.076 186.534 254.744 186.628 254.972 187.368C255.758 189.907 250.668 235.585 249.63 244.752Z" fill="black"/>
<path opacity="0.1" d="M233.026 321.422V323.541C222.351 337.692 218.081 332.852 216.383 327.504C216.514 326.569 216.601 325.748 216.601 325.748C223.234 331.592 231.958 321.66 231.958 321.66C232.286 321.439 232.659 321.355 233.026 321.422Z" fill="black"/>
<path d="M254.133 190.679C253.502 203.269 248.592 246.35 248.592 246.35C248.592 246.35 245.831 262.126 245.249 262.69C244.666 263.254 241.037 266.452 241.037 266.452C241.037 266.452 240.891 273.782 239.727 275.857C238.562 277.933 238.125 283.187 238.125 283.187C238.125 283.187 236.238 293.702 235.656 298.962C235.073 304.223 233.04 311.358 233.04 311.358V322.82C219.619 340.608 216.315 328.388 215.539 322.87C215.426 322.107 215.348 321.337 215.306 320.563L222.865 261.21C222.865 261.21 224.462 258.389 224.171 256.89C223.879 255.392 224.753 253.504 224.753 253.504L224.729 250.125C224.729 250.125 226.5 247.121 224.729 245.429C222.958 243.736 224.729 230.964 224.729 230.964C224.729 230.964 222.72 223.64 223.758 221.559C224.797 219.477 223.758 216.11 224.481 214.229C225.204 212.348 224.481 214.229 221.866 209.156C220.497 206.51 219.333 201.714 218.528 197.739C217.79 194.083 217.358 191.124 217.358 191.124C217.358 191.124 253.264 184.553 254.138 187.362C254.249 188.463 254.247 189.578 254.133 190.679Z" fill="#65617D"/>
<path opacity="0.1" d="M248.674 58.5121C247.457 60.5495 246.476 62.8054 245.763 65.2086C244.387 65.7727 242.951 66.0582 241.507 66.055C236.335 66.055 233.467 61.133 231.027 55.7596C230.915 55.515 229.159 56.581 229.057 56.3302C229.455 52.913 229.683 50.2482 229.683 50.2482C229.683 50.2482 254.972 47.8719 248.674 58.5121Z" fill="black"/>
<path d="M255.555 47.5269C255.559 51.7601 254.421 55.8627 252.335 59.1274C250.25 62.3921 247.349 64.6142 244.131 65.4108C240.914 66.2073 237.582 65.5283 234.711 63.4909C231.839 61.4534 229.608 58.1851 228.401 54.2495C227.195 50.3139 227.089 45.9577 228.101 41.9318C229.114 37.906 231.182 34.4628 233.948 32.196C236.715 29.9292 240.007 28.9808 243.257 29.5143C246.507 30.0478 249.511 32.0298 251.751 35.1185C254.192 38.4803 255.552 42.9166 255.555 47.5269Z" fill="#FABDBD"/>
<path opacity="0.1" d="M254.133 190.679C249.387 191.757 240.765 193.87 240.062 195.137C239.091 196.886 231.813 197.387 227.446 198.14C224.937 198.573 221.259 198.215 218.489 197.739C217.751 194.083 217.319 191.124 217.319 191.124C217.319 191.124 253.225 184.553 254.099 187.362C254.223 188.461 254.234 189.576 254.133 190.679Z" fill="black"/>
<path d="M257.205 188.873C257.205 188.873 241.033 192.252 240.062 194.008C239.092 195.764 231.814 196.259 227.447 197.011C223.08 197.764 215.239 196.133 214.656 195.632C211.26 192.704 212.91 158.319 214.365 154.055C215.821 149.792 215.336 126.009 213.977 116.491C212.618 106.973 214.656 95.079 214.656 95.079C214.656 95.079 216.689 86.6897 216.306 84.9341C215.923 83.1785 218.247 79.429 218.247 79.429C218.247 79.429 221.833 71.7858 223.672 70.6509C224.009 70.4418 224.307 70.1415 224.546 69.7705C224.786 69.3994 224.961 68.9663 225.059 68.5003C225.404 67.1146 225.36 65.3653 225.419 63.8918C225.516 61.3838 227.452 61.3838 227.452 61.3838C232.978 62.5061 245.963 73.0273 245.963 73.0273C245.477 75.4036 248.578 82.169 248.578 82.169C248.631 82.2756 248.675 82.3885 248.724 82.5076C252.12 90.7778 254.59 116.103 254.59 116.103C254.59 116.103 254.76 128.197 254.731 137.101C254.731 141.546 254.648 145.196 254.488 146.155C254.206 147.86 254.764 155.779 255.332 163.316C255.72 168.526 256.118 173.549 256.24 176.207C256.56 182.734 257.205 188.873 257.205 188.873Z" fill="#E01600"/>
<path opacity="0.1" d="M243.056 154.312C243.056 154.312 238.689 167.837 239.858 169.837C241.028 171.837 243.056 154.312 243.056 154.312Z" fill="black"/>
<path opacity="0.1" d="M248.48 160.821C248.48 160.821 243.541 170.853 245.38 172.84C247.219 174.828 248.48 160.821 248.48 160.821Z" fill="black"/>
<path opacity="0.1" d="M233.026 319.045V322.425C219.605 340.213 216.301 327.993 215.524 322.475C217.965 325.184 223.564 328.557 233.026 319.045Z" fill="black"/>
<path d="M233.026 319.422V322.801C219.605 340.589 216.301 328.369 215.524 322.851C217.965 325.56 223.564 328.933 233.026 319.422Z" fill="#65617D"/>
<path d="M231.429 329.034C231.63 329.034 231.793 328.823 231.793 328.563C231.793 328.304 231.63 328.093 231.429 328.093C231.228 328.093 231.065 328.304 231.065 328.563C231.065 328.823 231.228 329.034 231.429 329.034Z" fill="white"/>
<path d="M237.383 333.755C237.584 333.755 237.747 333.544 237.747 333.285C237.747 333.025 237.584 332.814 237.383 332.814C237.182 332.814 237.02 333.025 237.02 333.285C237.02 333.544 237.182 333.755 237.383 333.755Z" fill="white"/>
<path d="M235.103 331.817C235.304 331.817 235.467 331.607 235.467 331.347C235.467 331.087 235.304 330.877 235.103 330.877C234.902 330.877 234.739 331.087 234.739 331.347C234.739 331.607 234.902 331.817 235.103 331.817Z" fill="white"/>
<path d="M239.227 335.391C239.428 335.391 239.591 335.181 239.591 334.921C239.591 334.661 239.428 334.451 239.227 334.451C239.026 334.451 238.863 334.661 238.863 334.921C238.863 335.181 239.026 335.391 239.227 335.391Z" fill="white"/>
<path d="M233.39 330.413C233.591 330.413 233.754 330.202 233.754 329.943C233.754 329.683 233.591 329.472 233.39 329.472C233.189 329.472 233.026 329.683 233.026 329.943C233.026 330.202 233.189 330.413 233.39 330.413Z" fill="white"/>
<path opacity="0.1" d="M235.787 208.655C235.787 208.655 232.284 220.004 228.13 220.43C223.977 220.856 235.787 208.655 235.787 208.655Z" fill="black"/>
<path opacity="0.1" d="M236.369 225.941C236.369 225.941 230.843 238.086 229.198 238.212C227.553 238.337 236.369 225.941 236.369 225.941Z" fill="black"/>
<path opacity="0.1" d="M239.228 266.759C239.228 266.759 232.376 271.393 233.939 271.775C235.501 272.158 239.228 266.759 239.228 266.759Z" fill="black"/>
<path opacity="0.1" d="M225.612 266.759C225.612 266.759 232.498 263.129 233.706 263.129C234.914 263.129 225.612 266.759 225.612 266.759Z" fill="black"/>
<path opacity="0.1" d="M263.139 251.987C263.139 251.987 267.865 250.482 268.059 251.987C268.253 253.492 263.139 251.987 263.139 251.987Z" fill="black"/>
<path opacity="0.1" d="M267.671 259.386C267.671 259.386 263.503 259.499 264.085 261.267C264.667 263.035 267.671 259.386 267.671 259.386Z" fill="black"/>
<path opacity="0.1" d="M248.723 83.2725C245.142 81.4605 238.897 77.9681 236.078 74.4129C233.259 70.8578 228.086 69.6853 225.059 69.259C225.403 67.8733 225.359 66.1239 225.418 64.6505C225.515 62.1425 227.451 62.1425 227.451 62.1425C232.977 63.2648 245.962 73.7859 245.962 73.7859C245.477 76.1623 248.577 82.9277 248.577 82.9277C248.63 83.0405 248.674 83.1534 248.723 83.2725Z" fill="black"/>
<path d="M248.723 82.5202C245.142 80.7081 238.897 77.2157 236.078 73.6669C233.259 70.118 228.086 68.933 225.059 68.5066C225.403 67.1209 225.359 65.3716 225.418 63.8981C225.515 61.3901 227.451 61.3901 227.451 61.3901C232.977 62.5124 245.962 73.0336 245.962 73.0336C245.477 75.4099 248.577 82.1753 248.577 82.1753C248.63 82.2882 248.674 82.401 248.723 82.5202Z" fill="#E01600"/>
<path opacity="0.1" d="M255.331 163.329C249.577 158.501 241.507 150.312 241.507 149.804C241.507 149.177 238.208 144.543 238.208 144.543L231.716 129.301L229.683 123.031L235.505 115.143L248.203 125.658L251.6 133.671C252.727 134.704 253.781 135.865 254.749 137.139C254.749 141.584 254.667 145.233 254.506 146.192C254.206 147.873 254.764 155.792 255.331 163.329Z" fill="black"/>
<path d="M229.975 121.501L231.717 129.301L238.51 143.039C238.51 143.039 241.804 147.672 241.804 148.299C241.804 148.926 253.935 161.071 259.054 164.451C264.173 167.83 270.699 170.608 271.184 173.041C271.669 175.474 274.581 193.632 282.829 187.744C291.078 181.857 280.505 168.583 280.505 168.583L273.712 160.821C273.712 160.821 259.219 146.167 257.986 141.289C256.754 136.411 251.906 132.148 251.906 132.148L248.51 124.128L235.817 113.613L229.975 121.501Z" fill="#FABDBD"/>
<path opacity="0.1" d="M227.547 80.1751C227.547 80.1751 215.728 87.1913 219.41 98.3583C223.093 109.525 231.133 130.078 231.133 130.078C231.133 130.078 230.168 122.899 232.298 122.272C234.428 121.645 248.722 124.724 248.722 124.724C248.722 124.724 244.797 116.385 245.476 111.626C246.156 106.867 240.343 76.0431 227.547 80.1751Z" fill="black"/>
<path opacity="0.1" d="M228.712 79.0528C228.712 79.0528 216.892 86.0627 220.57 97.1921C224.248 108.321 232.298 128.925 232.298 128.925C232.298 128.925 231.327 121.752 233.462 121.125C235.597 120.498 249.062 123.752 249.062 123.752C249.062 123.752 245.961 115.237 246.636 110.478C247.31 105.719 241.517 74.9146 228.712 79.0528Z" fill="black"/>
<path d="M228.129 79.4227C228.129 79.4227 216.31 86.4389 219.992 97.6059C223.675 108.773 231.715 129.326 231.715 129.326C231.715 129.326 230.745 122.153 232.88 121.526C235.015 120.899 248.48 124.153 248.48 124.153C248.48 124.153 245.379 115.639 246.053 110.88C246.728 106.121 240.925 75.2908 228.129 79.4227Z" fill="#E01600"/>
<path opacity="0.1" d="M251.751 35.1185C250.106 35.8207 248.355 36.2283 246.899 35.1687C245.894 34.4476 245.138 33.0933 243.988 32.8111C242.954 32.5541 241.896 33.3253 241.231 34.3786C240.614 35.4874 240.123 36.706 239.776 37.9964C239.042 40.251 238.145 42.4112 237.097 44.4483C236.447 45.7023 235.584 47.0316 234.419 47.0943C232.823 47.1883 231.745 44.9123 230.202 44.3606C226.432 43 228.611 48.3671 229.164 50.3923C229.711 52.3913 229.903 54.5232 229.727 56.631C229.602 56.6683 229.476 56.6935 229.348 56.7063C227.63 52.8492 227.066 48.3117 227.763 43.9531C228.46 39.5946 230.37 35.7178 233.131 33.0572C235.892 30.3966 239.312 29.1369 242.744 29.5168C246.176 29.8967 249.38 31.8898 251.751 35.1185Z" fill="black"/>
<path d="M229.94 43.9718C231.478 44.5236 232.555 46.7996 234.151 46.7118C235.321 46.6429 236.184 45.3199 236.83 44.0596C237.878 42.0292 238.774 39.8752 239.508 37.6265C239.856 36.336 240.346 35.1174 240.964 34.0087C241.633 32.9553 242.686 32.1841 243.72 32.4412C244.846 32.7234 245.603 34.0777 246.631 34.7987C248.465 36.1217 250.746 35.1624 252.706 34.1717C253.677 33.6952 254.739 33.0055 254.904 31.7139C255.021 30.8047 254.618 29.8893 254.71 28.9739C254.802 28.0584 255.326 27.4189 255.681 26.6665C256.035 25.9141 256.239 24.8294 255.739 24.2212C255.375 23.7823 254.807 23.8136 254.341 23.5942C253.182 23.011 252.886 20.9984 251.852 20.0955C250.736 19.1236 249.247 19.7757 247.898 19.8572C245.957 19.9701 244.147 18.8164 242.347 17.8947C240.547 16.973 238.494 16.2645 236.713 17.2301C235.651 17.8132 234.826 18.9104 233.923 19.8384C232.158 21.6343 230.051 22.7822 227.824 23.1615C226.728 23.3496 225.529 23.381 224.665 24.2651C223.578 25.3811 223.414 27.4377 223.622 29.2121C223.831 30.9866 224.316 32.7296 224.204 34.5103C224.03 37.3381 222.395 39.6643 221.851 42.4106C221.73 42.8487 221.689 43.3167 221.73 43.7787C221.772 44.2407 221.894 44.6842 222.089 45.0754C222.412 45.4911 222.783 45.8381 223.19 46.1037C223.711 46.5421 224.151 47.1232 224.479 47.8059C224.807 48.4885 225.015 49.2559 225.088 50.0538C225.16 50.8626 225.088 51.684 225.185 52.4866C225.378 53.7141 225.936 54.7949 226.739 55.498C227.541 56.201 228.525 56.4704 229.479 56.2486C229.653 54.1408 229.46 52.0095 228.916 50.0099C228.343 47.9784 226.17 42.6426 229.94 43.9718Z" fill="#7C5C5C"/>
<g opacity="0.1">
<path opacity="0.1" d="M252.571 21.011C252.585 21.0427 252.601 21.0722 252.62 21.0988L252.571 21.011Z" fill="black"/>
<path opacity="0.1" d="M255.623 26.5599C255.992 25.8138 256.186 24.7165 255.681 24.1146C255.597 24.0168 255.502 23.9364 255.4 23.8763C255.406 24.43 255.281 24.9728 255.04 25.4313C254.672 26.1774 254.153 26.8609 254.07 27.7387C253.988 28.6165 254.376 29.5633 254.264 30.4724C254.099 31.7703 253.012 32.4538 252.066 32.9303C250.125 33.9147 247.825 34.8803 245.986 33.5573C244.987 32.83 244.23 31.4819 243.104 31.1998C242.071 30.9427 241.013 31.7139 240.348 32.7673C239.729 33.8752 239.239 35.094 238.892 36.3851C238.156 38.6385 237.26 40.7984 236.214 42.837C235.564 44.091 234.705 45.4202 233.536 45.4829C231.939 45.5707 230.862 43.301 229.319 42.7492C225.549 41.3886 227.727 46.7558 228.281 48.781C228.829 50.7903 229.021 52.9329 228.843 55.051C228.214 55.2003 227.566 55.1354 226.962 54.8628C226.358 54.5902 225.819 54.1192 225.398 53.4961C225.749 54.4506 226.333 55.23 227.059 55.7147C227.786 56.1995 228.616 56.3628 229.421 56.1796C229.599 54.0723 229.408 51.9402 228.863 49.9409C228.31 47.9157 226.131 42.5485 229.901 43.9029C231.444 44.4609 232.521 46.7307 234.118 46.6429C235.282 46.5802 236.146 45.2509 236.791 43.9969C237.84 41.9571 238.738 39.795 239.475 37.5388C239.822 36.2483 240.312 35.0297 240.93 33.921C241.242 33.37 241.662 32.9354 242.146 32.6613C242.63 32.3871 243.161 32.2831 243.686 32.3597C244.812 32.6419 245.569 33.9899 246.569 34.711C248.408 36.0402 250.688 35.0747 252.648 34.084C253.619 33.6075 254.681 32.924 254.842 31.6261C254.958 30.717 254.555 29.8015 254.652 28.8924C254.749 27.9832 255.254 27.3061 255.623 26.5599Z" fill="black"/>
<path opacity="0.1" d="M222.555 44.8497C222.289 44.624 221.997 44.4296 221.745 44.1788C221.798 44.4586 221.896 44.7212 222.031 44.95C222.356 45.3655 222.73 45.7125 223.138 45.9783C223.481 46.2684 223.788 46.6235 224.05 47.0317C223.711 46.1453 223.195 45.392 222.555 44.8497Z" fill="black"/>
</g>
<path opacity="0.1" d="M256.72 44.2854C256.72 44.2854 252.765 40.6989 250.412 44.5675H248.995C247.578 39.307 240.567 41.746 240.567 41.746L231.008 43.765L231.187 44.5675L240.567 43.5769C240.567 43.5769 240.785 48.5114 242.056 50.1103C243.328 51.7091 246.088 50.8125 246.088 50.8125C247.758 50.5366 248.558 47.1508 248.854 45.483L250.222 45.5833C249.975 47.2825 249.81 50.5993 252.047 51.753C255.104 53.3017 256.074 49.778 256.074 49.778C256.074 49.778 257.083 45.2259 256.72 44.2854Z" fill="black"/>
<path d="M256.72 43.8966C256.72 43.8966 252.765 40.3101 250.412 44.1788H248.995C247.578 38.9182 240.567 41.3572 240.567 41.3572L231.008 43.3825L231.187 44.1788L240.567 43.1944C240.567 43.1944 240.785 48.1226 242.056 49.7215C243.327 51.3203 246.088 50.4237 246.088 50.4237C247.758 50.1478 248.558 46.762 248.854 45.0942L250.222 45.1945C249.975 46.8937 249.81 50.2105 252.047 51.3642C255.099 52.9129 256.045 49.3892 256.045 49.3892C256.045 49.3892 257.083 44.8496 256.72 43.8966Z" fill="#3F3D56"/>
<path opacity="0.1" d="M475.718 262.395C480.225 262.395 483.879 261.598 483.879 260.615C483.879 259.631 480.225 258.834 475.718 258.834C471.211 258.834 467.557 259.631 467.557 260.615C467.557 261.598 471.211 262.395 475.718 262.395Z" fill="#E01600"/>
<path d="M470.234 252.326C470.234 252.326 474.888 252.144 476.29 250.852C477.692 249.561 483.452 248.018 483.796 250.087C484.141 252.156 490.793 260.383 485.538 260.439C480.283 260.496 473.33 259.386 471.928 258.282C470.526 257.179 470.234 252.326 470.234 252.326Z" fill="#A8A8A8"/>
<path opacity="0.2" d="M485.631 259.718C480.377 259.775 473.423 258.665 472.045 257.561C470.983 256.721 470.556 253.711 470.415 252.319H470.26C470.26 252.319 470.556 257.172 471.953 258.276C473.351 259.379 480.309 260.489 485.564 260.433C487.082 260.433 487.606 259.718 487.577 258.69C487.339 259.317 486.762 259.706 485.631 259.718Z" fill="black"/>
<path opacity="0.1" d="M54.6847 279.594C62.9625 279.594 69.6731 278.129 69.6731 276.321C69.6731 274.514 62.9625 273.048 54.6847 273.048C46.4068 273.048 39.6963 274.514 39.6963 276.321C39.6963 278.129 46.4068 279.594 54.6847 279.594Z" fill="#E01600"/>
<path d="M44.6104 261.104C44.6104 261.104 53.1648 260.765 55.7413 258.389C58.3178 256.013 68.8907 253.191 69.5312 256.991C70.1717 260.79 82.3652 275.889 72.7288 276.008C63.0923 276.127 50.2971 274.064 47.7255 272.039C45.1538 270.014 44.6104 261.104 44.6104 261.104Z" fill="#A8A8A8"/>
<path opacity="0.2" d="M72.8986 274.685C63.2476 274.785 50.4718 272.741 47.9001 270.716C45.9593 269.173 45.1586 263.643 44.8966 261.091H44.6104C44.6104 261.091 45.1538 270.001 47.7255 272.026C50.2971 274.051 63.0729 276.095 72.7287 275.995C75.5139 275.964 76.4795 274.685 76.4261 272.785C76.0573 273.945 74.9753 274.635 72.8986 274.685Z" fill="black"/>
</g>
<defs>
<clipPath id="clip0">
<rect width="550" height="385" fill="white"/>
</clipPath>
</defs>
</svg>
