<svg viewBox="0 0 45 41" fill="none" xmlns="http://www.w3.org/2000/svg">
<path d="M21.815 0.0774155C21.6455 0.135818 21.3744 0.245323 21.222 0.332924C21.061 0.420528 16.3 4.48679 10.6326 9.37798C-0.719117 19.1677 0.00942779 18.4814 0.00942779 19.4232C0.00942779 20.1532 -0.0837583 20.1313 3.15234 20.1313H5.89709L5.91403 29.5633C5.93945 38.3455 5.94792 39.0245 6.08346 39.28C6.32066 39.7326 6.70188 40.0903 7.18475 40.3239L7.63374 40.5356L11.7848 40.5575C16.3339 40.5794 16.4271 40.5721 16.9778 40.1633C17.647 39.6742 17.6216 39.8348 17.6724 35.5714L17.7148 31.7753L17.9096 31.4468C18.1892 30.9868 18.5534 30.6802 19.0617 30.4831C19.4853 30.3152 19.5361 30.3152 22.5011 30.3152C25.4577 30.3152 25.517 30.3152 25.9321 30.4831C26.4658 30.6948 26.7792 30.9503 27.0588 31.4103L27.2875 31.7753L27.3299 35.5714C27.3807 39.8348 27.3553 39.6742 28.0245 40.1633C28.5752 40.5721 28.6684 40.5794 33.2175 40.5575C37.3431 40.5356 37.3685 40.5356 37.7243 40.3677C38.2072 40.1487 38.6139 39.7837 38.8595 39.3603L39.0628 39.0025L39.0883 29.5633L39.1052 20.1313H41.8499C45.0945 20.1313 44.9929 20.1532 44.9929 19.4232C44.9844 18.4741 45.7214 19.175 34.3358 9.34878C26.847 2.88803 23.882 0.376728 23.577 0.230721C23.0772 -0.00288773 22.2809 -0.0685921 21.815 0.0774155Z" fill="#FF9000"/>
</svg>
