<svg viewBox="0 0 472 259" fill="none" xmlns="http://www.w3.org/2000/svg">
<g clip-path="url(#clip0)">
<path d="M102.269 229.903C115.826 229.903 126.816 219.407 126.816 206.46C126.816 193.513 115.826 183.018 102.269 183.018C88.7126 183.018 77.7227 193.513 77.7227 206.46C77.7227 219.407 88.7126 229.903 102.269 229.903Z" fill="#FF0000"/>
<path d="M106.261 226.472C119.817 226.472 130.807 215.976 130.807 203.029C130.807 190.083 119.817 179.587 106.261 179.587C92.7038 179.587 81.7139 190.083 81.7139 203.029C81.7139 215.976 92.7038 226.472 106.261 226.472Z" fill="white"/>
<path d="M429.738 177.091H126.029V177.882H429.738V177.091Z" fill="#3F3D56"/>
<path d="M283.321 7.38064H175.523V5.25879H126.643V7.38064H18.4011C17.4435 7.38064 16.4953 7.56075 15.6107 7.91071C14.726 8.26067 13.9222 8.77361 13.2451 9.42024C12.568 10.0669 12.0309 10.8345 11.6644 11.6794C11.298 12.5243 11.1094 13.4298 11.1094 14.3443V155.312C11.1094 157.159 11.8776 158.93 13.2451 160.236C14.6125 161.542 16.4672 162.275 18.4011 162.275H283.321C285.254 162.275 287.109 161.542 288.477 160.236C289.844 158.93 290.612 157.159 290.612 155.312V14.3443C290.612 13.4298 290.424 12.5243 290.057 11.6794C289.691 10.8345 289.154 10.0669 288.477 9.42024C287.799 8.77361 286.996 8.26067 286.111 7.91071C285.226 7.56075 284.278 7.38064 283.321 7.38064Z" fill="#3F3D56"/>
<path d="M280.836 19.6873H20.8848V159.729H280.836V19.6873Z" fill="white"/>
<path d="M150.638 15.8679C152.11 15.8679 153.304 14.728 153.304 13.3217C153.304 11.9155 152.11 10.7755 150.638 10.7755C149.165 10.7755 147.972 11.9155 147.972 13.3217C147.972 14.728 149.165 15.8679 150.638 15.8679Z" fill="white"/>
<path opacity="0.1" d="M206.494 159.729H20.8848V19.6875L206.494 159.729Z" fill="black"/>
<path d="M61.5596 149.25C75.3597 149.25 86.5469 138.566 86.5469 125.387C86.5469 112.207 75.3597 101.524 61.5596 101.524C47.7595 101.524 36.5723 112.207 36.5723 125.387C36.5723 138.566 47.7595 149.25 61.5596 149.25Z" fill="#FF0000"/>
<path d="M235.574 95.213H211.292V100.059H235.574V95.213Z" fill="#3F3D56"/>
<path d="M264.93 57.4863H181.936V59.563H264.93V57.4863Z" fill="#3F3D56"/>
<path d="M264.93 64.0625H181.936V66.1392H264.93V64.0625Z" fill="#3F3D56"/>
<path d="M264.93 70.6387H181.936V72.7154H264.93V70.6387Z" fill="#3F3D56"/>
<path d="M264.93 77.215H181.936V79.2917H264.93V77.215Z" fill="#3F3D56"/>
<path d="M264.93 83.7911H181.936V85.8678H264.93V83.7911Z" fill="#3F3D56"/>
<path d="M264.931 22.5284H254.783V32.2197H264.931V22.5284Z" fill="#FF0000"/>
<path d="M269.642 36.7193H257.319V24.9513H269.642V36.7193ZM257.855 36.2077H269.106V25.463H257.855V36.2077Z" fill="#3F3D56"/>
<path d="M297.911 157.183H272.541V155.437C272.541 155.392 272.532 155.347 272.514 155.305C272.496 155.263 272.469 155.225 272.435 155.193C272.401 155.16 272.362 155.135 272.318 155.118C272.274 155.1 272.226 155.091 272.179 155.091H263.481C263.433 155.091 263.386 155.1 263.342 155.118C263.298 155.135 263.258 155.16 263.224 155.193C263.191 155.225 263.164 155.263 263.146 155.305C263.128 155.347 263.118 155.392 263.118 155.437V157.183H257.682V155.437C257.682 155.392 257.673 155.347 257.654 155.305C257.636 155.263 257.609 155.225 257.576 155.193C257.542 155.16 257.502 155.135 257.458 155.118C257.414 155.1 257.367 155.091 257.32 155.091H248.621C248.574 155.091 248.527 155.1 248.483 155.118C248.439 155.135 248.399 155.16 248.365 155.193C248.332 155.225 248.305 155.263 248.287 155.305C248.268 155.347 248.259 155.392 248.259 155.437V157.183H242.823V155.437C242.823 155.392 242.813 155.347 242.795 155.305C242.777 155.263 242.75 155.225 242.717 155.193C242.683 155.16 242.643 155.135 242.599 155.118C242.555 155.1 242.508 155.091 242.46 155.091H233.762C233.715 155.091 233.667 155.1 233.623 155.118C233.579 155.135 233.54 155.16 233.506 155.193C233.472 155.225 233.446 155.263 233.427 155.305C233.409 155.347 233.4 155.392 233.4 155.437V157.183H227.963V155.437C227.963 155.392 227.954 155.347 227.936 155.305C227.918 155.263 227.891 155.225 227.857 155.193C227.824 155.16 227.784 155.135 227.74 155.118C227.696 155.1 227.649 155.091 227.601 155.091H218.903C218.855 155.091 218.808 155.1 218.764 155.118C218.72 155.135 218.68 155.16 218.647 155.193C218.613 155.225 218.586 155.263 218.568 155.305C218.55 155.347 218.54 155.392 218.54 155.437V157.183H213.104V155.437C213.104 155.392 213.095 155.347 213.077 155.305C213.058 155.263 213.032 155.225 212.998 155.193C212.964 155.16 212.924 155.135 212.88 155.118C212.836 155.1 212.789 155.091 212.742 155.091H204.044C203.996 155.091 203.949 155.1 203.905 155.118C203.861 155.135 203.821 155.16 203.787 155.193C203.754 155.225 203.727 155.263 203.709 155.305C203.69 155.347 203.681 155.392 203.681 155.437V157.183H198.245V155.437C198.245 155.392 198.235 155.347 198.217 155.305C198.199 155.263 198.172 155.225 198.139 155.193C198.105 155.16 198.065 155.135 198.021 155.118C197.977 155.1 197.93 155.091 197.882 155.091H189.184C189.137 155.091 189.09 155.1 189.046 155.118C189.002 155.135 188.962 155.16 188.928 155.193C188.894 155.225 188.868 155.263 188.849 155.305C188.831 155.347 188.822 155.392 188.822 155.437V157.183H183.385V155.437C183.385 155.392 183.376 155.347 183.358 155.305C183.34 155.263 183.313 155.225 183.279 155.193C183.246 155.16 183.206 155.135 183.162 155.118C183.118 155.1 183.071 155.091 183.023 155.091H114.888C114.84 155.091 114.793 155.1 114.749 155.118C114.705 155.135 114.665 155.16 114.631 155.193C114.598 155.225 114.571 155.263 114.553 155.305C114.535 155.347 114.525 155.392 114.525 155.437V157.183H109.089V155.437C109.089 155.392 109.08 155.347 109.061 155.305C109.043 155.263 109.017 155.225 108.983 155.193C108.949 155.16 108.909 155.135 108.865 155.118C108.821 155.1 108.774 155.091 108.727 155.091H100.028C99.9809 155.091 99.9337 155.1 99.8898 155.118C99.8458 155.135 99.8058 155.16 99.7722 155.193C99.7385 155.225 99.7118 155.263 99.6936 155.305C99.6754 155.347 99.666 155.392 99.666 155.437V157.183H94.2297V155.437C94.2297 155.392 94.2203 155.347 94.2021 155.305C94.1839 155.263 94.1572 155.225 94.1236 155.193C94.0899 155.16 94.0499 155.135 94.006 155.118C93.962 155.1 93.9149 155.091 93.8673 155.091H85.1692C85.1216 155.091 85.0744 155.1 85.0305 155.118C84.9865 155.135 84.9465 155.16 84.9129 155.193C84.8792 155.225 84.8525 155.263 84.8343 155.305C84.8161 155.347 84.8067 155.392 84.8067 155.437V157.183H79.3704V155.437C79.3704 155.392 79.361 155.347 79.3428 155.305C79.3246 155.263 79.2979 155.225 79.2643 155.193C79.2306 155.16 79.1906 155.135 79.1467 155.118C79.1027 155.1 79.0556 155.091 79.008 155.091H70.3098C70.2623 155.091 70.2151 155.1 70.1712 155.118C70.1272 155.135 70.0872 155.16 70.0536 155.193C70.0199 155.225 69.9932 155.263 69.975 155.305C69.9568 155.347 69.9474 155.392 69.9474 155.437V157.183H64.5111V155.437C64.5111 155.392 64.5017 155.347 64.4835 155.305C64.4653 155.263 64.4386 155.225 64.405 155.193C64.3713 155.16 64.3314 155.135 64.2874 155.118C64.2434 155.1 64.1963 155.091 64.1487 155.091H55.4506C55.403 155.091 55.3558 155.1 55.3119 155.118C55.2679 155.135 55.2279 155.16 55.1943 155.193C55.1606 155.225 55.1339 155.263 55.1157 155.305C55.0975 155.347 55.0881 155.392 55.0881 155.437V157.183H49.6518V155.437C49.6518 155.392 49.6424 155.347 49.6242 155.305C49.606 155.263 49.5793 155.225 49.5457 155.193C49.512 155.16 49.472 155.135 49.4281 155.118C49.3841 155.1 49.337 155.091 49.2894 155.091H40.5913C40.5437 155.091 40.4965 155.1 40.4526 155.118C40.4086 155.135 40.3686 155.16 40.335 155.193C40.3013 155.225 40.2746 155.263 40.2564 155.305C40.2382 155.347 40.2288 155.392 40.2288 155.437V157.183H34.7925V155.437C34.7925 155.392 34.7831 155.347 34.7649 155.305C34.7467 155.263 34.72 155.225 34.6864 155.193C34.6527 155.16 34.6128 155.135 34.5688 155.118C34.5248 155.1 34.4777 155.091 34.4301 155.091H25.732C25.6844 155.091 25.6372 155.1 25.5933 155.118C25.5493 155.135 25.5093 155.16 25.4757 155.193C25.442 155.225 25.4153 155.263 25.3971 155.305C25.3789 155.347 25.3695 155.392 25.3695 155.437V157.183H8.69813C6.39124 157.183 4.17884 158.058 2.54763 159.616C0.91641 161.174 2.19777e-06 163.287 0 165.49V169.246C6.59332e-06 171.449 0.916417 173.562 2.54763 175.12C4.17885 176.677 6.39124 177.553 8.69813 177.553H297.911C300.218 177.553 302.43 176.677 304.061 175.12C305.693 173.562 306.609 171.449 306.609 169.246V165.49C306.609 163.287 305.693 161.174 304.061 159.616C302.43 158.058 300.218 157.183 297.911 157.183Z" fill="#3F3D56"/>
<path d="M67.6087 140.291C61.3807 140.291 55.2925 138.528 50.1141 135.223C44.9356 131.919 40.8995 127.222 38.5162 121.727C36.1328 116.232 35.5092 110.185 36.7242 104.351C37.9392 98.5179 40.9383 93.1594 45.3422 88.9537C49.7461 84.7479 55.357 81.8837 61.4654 80.7234C67.5738 79.563 73.9053 80.1585 79.6593 82.4347C85.4132 84.7108 90.3312 88.5653 93.7913 93.5108C97.2515 98.4563 99.0983 104.271 99.0983 110.218C99.0889 118.191 95.7682 125.835 89.8648 131.473C83.9614 137.111 75.9574 140.282 67.6087 140.291ZM67.6087 80.9369C61.5446 80.9369 55.6166 82.6542 50.5744 85.8717C45.5323 89.0892 41.6024 93.6624 39.2817 99.0129C36.9611 104.363 36.3539 110.251 37.537 115.931C38.72 121.611 41.6402 126.828 45.9282 130.924C50.2162 135.019 55.6794 137.807 61.6271 138.937C67.5747 140.067 73.7396 139.487 79.3421 137.271C84.9447 135.055 89.7333 131.302 93.1023 126.486C96.4714 121.671 98.2696 116.01 98.2696 110.218C98.2604 102.455 95.0271 95.0124 89.2791 89.523C83.5311 84.0335 75.7377 80.9457 67.6087 80.9369Z" fill="#3F3D56"/>
<path d="M348.528 12.8772H242.872V13.6686H348.528V12.8772Z" fill="#3F3D56"/>
<path d="M472 221.805H168.292V222.596H472V221.805Z" fill="#3F3D56"/>
<path d="M185.487 258.209H79.8311V259H185.487V258.209Z" fill="#3F3D56"/>
<path d="M206.754 217.633H195.152V228.712H206.754V217.633Z" fill="white"/>
<path d="M213.797 222.381H199.71V208.927H213.797V222.381ZM200.322 221.796H213.185V209.512H200.322V221.796Z" fill="#3F3D56"/>
<path d="M341.413 8.70532H329.812V19.7848H341.413V8.70532Z" fill="white"/>
<path d="M348.457 13.4537H334.369V0H348.457V13.4537ZM334.982 12.8687H347.844V0.584943H334.982V12.8687Z" fill="#3F3D56"/>
<path d="M458.256 217.633H446.654V228.712H458.256V217.633Z" fill="white"/>
<path d="M465.3 222.381H451.213V208.927H465.3V222.381ZM451.825 221.796H464.688V209.512H451.825V221.796Z" fill="#3F3D56"/>
<path d="M438.024 91.7849H437.039V66.0007C437.039 64.0409 436.635 62.1004 435.849 60.2898C435.064 58.4793 433.913 56.8341 432.462 55.4484C431.011 54.0627 429.288 52.9634 427.393 52.2135C425.497 51.4635 423.465 51.0775 421.413 51.0775H364.212C362.16 51.0775 360.128 51.4635 358.232 52.2135C356.336 52.9634 354.614 54.0627 353.163 55.4484C351.712 56.8341 350.561 58.4793 349.775 60.2898C348.99 62.1004 348.586 64.0409 348.586 66.0007V207.455C348.586 209.414 348.99 211.355 349.775 213.165C350.561 214.976 351.712 216.621 353.163 218.007C354.614 219.393 356.336 220.492 358.232 221.242C360.128 221.992 362.16 222.378 364.212 222.378H421.413C423.465 222.378 425.497 221.992 427.393 221.242C429.288 220.492 431.011 219.393 432.462 218.007C433.913 216.621 435.064 214.976 435.849 213.165C436.635 211.355 437.039 209.414 437.039 207.455V110.138H438.024V91.7849Z" fill="#3F3D56"/>
<path d="M433.712 66.8778V208.125C433.712 211.081 432.483 213.916 430.295 216.006C428.107 218.097 425.139 219.272 422.044 219.272H364.567C361.472 219.272 358.504 218.097 356.316 216.006C354.128 213.916 352.899 211.081 352.899 208.125V66.8778C352.9 63.9226 354.129 61.0886 356.317 58.999C358.505 56.9094 361.473 55.7353 364.567 55.735H371.54C371.197 56.5389 371.066 57.4111 371.159 58.2746C371.252 59.1382 371.566 59.9668 372.073 60.6872C372.58 61.4077 373.265 61.998 374.068 62.4061C374.87 62.8143 375.765 63.0277 376.674 63.0277H409.444C410.353 63.0277 411.248 62.8143 412.05 62.4061C412.853 61.998 413.538 61.4077 414.045 60.6872C414.552 59.9668 414.866 59.1382 414.959 58.2746C415.052 57.411 414.921 56.5389 414.578 55.735H422.044C425.138 55.7353 428.106 56.9094 430.294 58.999C432.482 61.0886 433.711 63.9226 433.712 66.8778Z" fill="white"/>
<path d="M401.866 148.868H384.744V153.713H401.866V148.868Z" fill="#3F3D56"/>
<path d="M422.566 111.141H364.045V113.218H422.566V111.141Z" fill="#3F3D56"/>
<path d="M422.566 117.717H364.045V119.794H422.566V117.717Z" fill="#3F3D56"/>
<path d="M422.566 124.293H364.045V126.37H422.566V124.293Z" fill="#3F3D56"/>
<path d="M422.566 130.87H364.045V132.946H422.566V130.87Z" fill="#3F3D56"/>
<path d="M422.566 137.446H364.045V139.523H422.566V137.446Z" fill="#3F3D56"/>
<path d="M395.349 83.5625H385.201V93.2538H395.349V83.5625Z" fill="#FF0000"/>
<path d="M389.087 85.986V97.754H401.409V85.986H389.087ZM400.875 97.2435H389.621V86.4964H400.875V97.2435Z" fill="#3F3D56"/>
<path opacity="0.1" d="M433.712 193.041V208.125C433.712 211.081 432.483 213.916 430.295 216.006C428.107 218.097 425.139 219.272 422.044 219.272H364.567C361.472 219.272 358.504 218.097 356.316 216.006C354.128 213.916 352.899 211.081 352.899 208.125V132.069L401.323 168.603L402.152 169.229L411.159 176.023L412 176.66L433.712 193.041Z" fill="black"/>
<path d="M388.333 214.695C398.372 214.695 406.509 206.923 406.509 197.336C406.509 187.749 398.372 179.978 388.333 179.978C378.295 179.978 370.157 187.749 370.157 197.336C370.157 206.923 378.295 214.695 388.333 214.695Z" fill="#FF0000"/>
<path d="M132.659 259C125.529 259 118.56 256.981 112.632 253.198C106.704 249.416 102.084 244.039 99.3553 237.749C96.6269 231.458 95.9131 224.536 97.304 217.858C98.6949 211.18 102.128 205.046 107.169 200.232C112.211 195.417 118.634 192.139 125.626 190.81C132.619 189.482 139.867 190.164 146.453 192.769C153.04 195.375 158.67 199.787 162.631 205.449C166.592 211.11 168.706 217.766 168.706 224.574C168.695 233.702 164.894 242.452 158.136 248.906C151.378 255.359 142.216 258.99 132.659 259ZM132.659 190.94C125.693 190.94 118.884 192.913 113.092 196.609C107.301 200.304 102.786 205.557 100.121 211.703C97.4553 217.849 96.7578 224.612 98.1167 231.136C99.4757 237.661 102.83 243.654 107.755 248.357C112.681 253.061 118.956 256.265 125.788 257.562C132.62 258.86 139.701 258.194 146.136 255.648C152.572 253.103 158.072 248.792 161.942 243.261C165.812 237.729 167.877 231.227 167.877 224.574C167.867 215.657 164.153 207.108 157.55 200.803C150.948 194.497 141.996 190.95 132.659 190.94Z" fill="#3F3D56"/>
<path d="M393.691 210.725C389.184 210.725 384.778 209.449 381.03 207.057C377.283 204.666 374.362 201.267 372.637 197.29C370.912 193.314 370.461 188.938 371.34 184.716C372.22 180.494 374.39 176.617 377.577 173.573C380.764 170.529 384.824 168.457 389.245 167.617C393.666 166.777 398.248 167.208 402.412 168.855C406.576 170.502 410.135 173.292 412.639 176.871C415.143 180.45 416.479 184.658 416.479 188.962C416.473 194.732 414.069 200.264 409.797 204.344C405.525 208.424 399.733 210.719 393.691 210.725ZM393.691 167.99C389.348 167.99 385.102 169.22 381.491 171.524C377.879 173.829 375.065 177.104 373.403 180.936C371.741 184.768 371.306 188.985 372.153 193.053C373 197.121 375.092 200.858 378.163 203.791C381.234 206.724 385.147 208.722 389.407 209.531C393.667 210.34 398.082 209.925 402.095 208.337C406.107 206.75 409.537 204.062 411.95 200.613C414.363 197.164 415.651 193.11 415.651 188.962C415.644 183.402 413.328 178.071 409.212 174.139C405.095 170.208 399.513 167.996 393.691 167.99Z" fill="#3F3D56"/>
</g>
<defs>
<clipPath id="clip0">
<rect width="472" height="259" fill="white"/>
</clipPath>
</defs>
</svg>
