<svg width="77" height="78" viewBox="0 0 77 78" fill="none" xmlns="http://www.w3.org/2000/svg">
<g clip-path="url(#clip0)">
<path d="M36.3932 9.47274C32.0401 9.97061 29.2173 10.742 26.0147 12.2956C19.9059 15.2492 15.2446 19.8512 12.303 25.8292C11.378 27.7271 10.1088 31.2019 10.2863 31.3801C10.3337 31.4275 11.2233 31.4515 12.267 31.4395L14.1409 31.4041L14.5914 30.1588C15.1132 28.7114 15.896 27.0397 16.6554 25.7704C17.545 24.2876 17.2367 24.3944 19.3361 24.8095C20.3324 24.999 21.898 25.2719 22.8116 25.4141C23.7131 25.5443 24.4839 25.687 24.5079 25.699C24.5319 25.723 24.4131 26.3516 24.247 27.0984C24.0808 27.8338 23.8673 28.9489 23.7605 29.5656C23.6657 30.1822 23.547 30.8702 23.5116 31.0838L23.4522 31.4755L25.3735 31.4401L27.3068 31.4047L27.5557 29.9813C27.6979 29.1985 27.9354 28.0006 28.0896 27.3246L28.3745 26.0913L29.6198 26.1741C36.2738 26.5892 41.0179 26.5892 47.6719 26.1741L48.9172 26.0913L49.1901 27.2658C49.3323 27.9184 49.5698 29.1043 49.724 29.9225L49.9969 31.4053L51.9182 31.4407L53.8395 31.4761L53.7801 31.0844C53.7447 30.8708 53.626 30.1828 53.5192 29.5662C53.4244 28.9495 53.1989 27.8344 53.0327 27.099C52.8786 26.3516 52.7598 25.735 52.7838 25.7116C52.8072 25.6876 53.5786 25.5455 54.4795 25.4153C55.3931 25.2731 56.9587 25.0002 57.955 24.8107C60.0544 24.3956 59.7461 24.2888 60.6477 25.795C61.3831 27.0169 62.1899 28.7486 62.7117 30.2074L63.1508 31.4053L65.0247 31.4407C66.0684 31.4527 66.958 31.4287 67.0054 31.3813C67.1835 31.2031 65.9143 27.7283 64.9887 25.8304C60.7317 17.1465 52.4647 11.1331 42.7976 9.69828C41.505 9.50813 37.3655 9.36597 36.3932 9.47274ZM40.4613 13.6002C42.4893 14.359 44.482 16.3163 46.0836 19.1512C46.795 20.3964 47.6138 22.1876 47.507 22.2823C47.2107 22.5786 37.9587 22.7688 33.5943 22.5786C31.8272 22.4959 30.2136 22.3891 30.0121 22.3531L29.6324 22.2703L30.4505 20.61C32.5026 16.4705 34.7796 14.1101 37.4603 13.3747C38.3264 13.1378 39.4529 13.2205 40.4613 13.6002ZM28.5526 16.1742C27.8292 17.2773 26.5954 19.7204 26.0735 21.0844C25.9193 21.4755 25.7652 21.8318 25.7298 21.8792C25.647 21.962 24.0574 21.7605 21.7685 21.3694L20.2503 21.1084L20.7601 20.5746C21.6143 19.697 23.334 18.297 24.6507 17.4314C25.7778 16.684 29.1459 14.9289 29.2527 15.0237C29.2766 15.0477 28.9563 15.5695 28.5526 16.1742ZM50.8631 16.3643C52.7964 17.408 55.1921 19.1872 56.5328 20.5752L57.0426 21.109L55.5245 21.37C53.2355 21.7617 51.6459 21.9632 51.5631 21.8798C51.5277 21.8324 51.3142 21.346 51.1006 20.7887C50.5434 19.3773 49.4997 17.3606 48.6929 16.1274C48.3252 15.5581 48.0169 15.0597 48.0169 15.0363C48.0169 14.9523 49.7486 15.7591 50.8631 16.3643Z" fill="black"/>
<path d="M12.8249 33.6217C12.8723 33.7759 13.1213 34.5347 15.1025 40.6194L16.241 44.1537H17.7712H19.3014L19.527 43.5251C19.6457 43.1928 20.0608 42.0189 20.4519 40.9272C20.8316 39.8366 21.1753 38.9831 21.2227 39.0305C21.2581 39.0779 21.6852 40.2523 22.1716 41.6278L23.0492 44.1543H24.5914H26.1336L27.8299 38.9003C28.7669 36.0181 29.5263 33.6223 29.5143 33.5629C29.5143 33.5155 28.7195 33.4801 27.7472 33.4801C26.1576 33.4801 25.968 33.5041 25.9087 33.6817C25.4696 35.2473 24.4972 38.5326 24.4732 38.5566C24.4492 38.5806 24.0581 37.4415 23.5837 36.0421L22.7295 33.4801H21.2113H19.6931L18.8269 36.0541C18.3525 37.4775 17.9494 38.5806 17.9374 38.5212C17.914 38.4498 17.5937 37.3827 17.2374 36.1488C16.8697 34.9036 16.5494 33.8005 16.514 33.6817C16.4546 33.5035 16.265 33.4801 14.6041 33.4801C13.1812 33.4795 12.7776 33.5149 12.8249 33.6217Z" fill="black"/>
<path d="M30.8657 35.4009C31.2094 36.4686 31.9928 38.8643 32.5974 40.7502L33.7125 44.1663L35.2547 44.1309L36.7969 44.0955L37.6744 41.569C38.1609 40.193 38.5994 39.0545 38.6468 39.0545C38.6942 39.0545 39.1213 40.193 39.6077 41.569L40.4967 44.0949L42.0389 44.1303L43.5811 44.1657L44.5774 41.1053C45.1227 39.421 45.9061 37.0132 46.3091 35.756L47.0445 33.4784H45.2414H43.4389L42.8097 35.6384C42.454 36.8363 42.1217 37.9988 42.0503 38.2243C41.9435 38.6274 41.8961 38.5326 41.0773 36.0895L40.2232 33.5396L38.693 33.5042L37.1628 33.4688L36.3326 35.9713C35.8821 37.3353 35.4784 38.4624 35.443 38.4624C35.4076 38.4624 35.1467 37.6797 34.8618 36.7073C34.5769 35.7464 34.2452 34.6319 34.1144 34.2162L33.8889 33.4808H32.0743H30.249L30.8657 35.4009Z" fill="black"/>
<path d="M47.7794 33.5623C47.7674 33.6217 48.5268 36.0175 49.4638 38.8997L51.1601 44.1537H52.7023H54.2445L55.1221 41.6272C55.5965 40.2512 56.0236 39.0773 56.071 39.0299C56.1064 38.9825 56.5575 40.0976 57.0554 41.5204L57.9563 44.0949L59.4985 44.1303L61.0521 44.1657L61.4792 42.8257C62.2026 40.5841 64.4088 33.7879 64.4682 33.6217C64.5156 33.503 64.1479 33.4796 62.713 33.503L60.8865 33.5383L60.3995 35.1993C60.1265 36.1129 59.7828 37.2634 59.6401 37.7492L59.3671 38.6388L58.5136 36.0889L57.6594 33.5389H56.1412H54.623L53.7808 35.9941C53.3184 37.3581 52.9153 38.4612 52.8793 38.4612C52.8439 38.4612 52.4996 37.3461 52.1085 35.9941L51.3851 33.5389L49.582 33.5036C48.5862 33.4916 47.7794 33.515 47.7794 33.5623Z" fill="black"/>
<path d="M63.6729 42.3158V44.0355H65.3926H67.1123V42.3158V40.596H65.3926H63.6729V42.3158Z" fill="black"/>
<path d="M10.2518 46.2657C10.1097 46.5027 11.4263 50.0141 12.3747 51.9234C13.9642 55.126 15.672 57.4863 18.1985 59.9295C22.326 63.9268 27.2363 66.5121 32.8352 67.6392C44.5423 69.9876 56.4149 65.1007 63.0809 55.1854C63.9111 53.9401 65.2752 51.3896 65.821 50.0261C66.3669 48.6621 67.1023 46.3731 67.0429 46.2663C67.0069 46.2189 66.1173 46.1716 65.0622 46.1716H63.1403L62.7372 47.3694C62.2508 48.7929 61.1716 51.0585 60.4008 52.2443C60.1045 52.7188 59.8316 53.1219 59.8196 53.1459C59.7956 53.1699 58.9654 53.0271 57.9691 52.8256C56.9608 52.6354 55.3952 52.3631 54.4816 52.2203C53.5801 52.0902 52.8093 51.9594 52.7973 51.936C52.7733 51.912 52.8921 51.26 53.0582 50.4892C53.5447 48.2596 53.8176 46.2783 53.6628 46.2195C53.5801 46.1842 52.7259 46.1842 51.7536 46.1956L49.9864 46.2309L49.7375 47.6544C49.5953 48.4372 49.3578 49.635 49.2036 50.3111L48.9187 51.5443L47.6734 51.4615C43.6407 51.2126 42.2413 51.1652 38.6471 51.1652C35.0534 51.1652 33.6534 51.2126 29.6207 51.4615L28.3754 51.5443L28.0905 50.3111C27.9363 49.635 27.6994 48.4372 27.5566 47.6544L27.3077 46.2309L25.4812 46.1956C24.4848 46.1836 23.6193 46.2075 23.5713 46.2549C23.4645 46.3617 23.8916 48.983 24.2947 50.7861C24.4254 51.3908 24.5202 51.9132 24.5082 51.9366C24.4848 51.9486 23.5593 52.1148 22.4562 52.2803C21.3411 52.4585 19.8115 52.7194 19.0281 52.8856C18.2573 53.0397 17.5813 53.1699 17.5333 53.1699C17.3911 53.1699 16.288 51.308 15.6474 49.9673C15.3151 49.2793 14.8406 48.1642 14.5917 47.4768L14.1412 46.2315L12.2313 46.1962C11.1768 46.1824 10.2872 46.2064 10.2518 46.2657ZM44.1146 55.0666C46.9968 55.2088 47.5421 55.2681 47.5421 55.4697C47.5421 55.7306 46.0359 58.6602 45.4186 59.5738C43.0943 63.0727 40.3542 64.7924 37.8511 64.3299C35.7162 63.9388 33.7116 62.3492 31.8731 59.5738C31.2564 58.6602 29.7502 55.7306 29.7502 55.4697C29.7502 55.3869 29.9638 55.2915 30.2601 55.2441C32.1706 54.9832 40.1886 54.8764 44.1146 55.0666ZM26.1812 56.8457C26.7858 58.3399 27.676 60.1076 28.4942 61.4003C28.8619 61.9815 29.1348 62.4794 29.1108 62.5154C28.992 62.6222 26.027 61.104 24.8405 60.3332C23.3697 59.3608 21.8515 58.1624 20.9386 57.2254L20.2506 56.5254L21.7688 56.2645C23.5359 55.9681 25.5052 55.6832 25.6353 55.7072C25.6827 55.7186 25.9316 56.2285 26.1812 56.8457ZM53.117 55.8968C53.6035 55.9562 54.6946 56.1343 55.5247 56.2765L57.0429 56.5374L56.3549 57.2374C55.4654 58.139 53.9352 59.3608 52.5237 60.2858C51.3733 61.0452 48.3015 62.6222 48.1947 62.5154C48.1593 62.48 48.4322 61.9815 48.7993 61.4003C49.7717 59.8581 50.9462 57.4504 51.492 55.8728C51.5514 55.7186 51.6582 55.6832 51.8951 55.7186C52.0733 55.754 52.6311 55.8254 53.117 55.8968Z" fill="black"/>
</g>
<defs>
<clipPath id="clip0">
<rect width="59.984" height="59.984" fill="white" transform="translate(8.68555 8.8363)"/>
</clipPath>
</defs>
</svg>
