<svg viewBox="0 0 450 385" fill="none" xmlns="http://www.w3.org/2000/svg">
<g clip-path="url(#clip0)">
<path d="M449.996 246.153L442.566 246.148L374.121 78.1909C374.47 78.093 374.831 78.0516 375.166 77.9213C376.741 77.2895 378.066 76.2861 379.016 75.2178C380.072 74.0289 380.766 72.8117 381.295 71.6041C381.496 71.2 381.616 70.7545 381.616 70.2807C381.616 68.4835 380.052 67.0242 378.115 67.0242C376.655 67.0242 375.411 67.8559 374.886 69.04C374.496 69.7414 374.066 70.3545 373.605 70.7724C372.691 71.571 372.145 71.6779 371 71.5524C368.586 71.2276 365.19 68.9186 362.405 66.438C359.68 64.0463 356.65 60.6691 353.18 57.8685C349.835 54.9471 345.97 52.4389 341.915 50.1996C337.804 48.0162 333.3 46.3769 328.675 45.29C319.345 43.1721 309.769 43.7666 301.37 45.4204C292.864 47.0086 285.24 49.4748 278.134 51.6955C271.05 53.9623 264.525 56.0988 258.515 57.8029C250.334 60.1857 243.145 61.6629 237.174 62.527V40.8094C241.834 39.2019 244.64 36.5688 245.53 32.9689C248.549 20.7484 227.039 1.7604 226.124 0.956964L225.004 0.000427246L223.894 0.971447C222.973 1.77488 201.467 20.7629 204.487 32.9834C205.377 36.5833 208.187 39.2164 212.843 40.8239V62.5436C206.872 61.6794 199.682 60.2022 191.497 57.8195C185.487 56.1099 178.961 53.9782 171.88 51.7113C164.77 49.4914 157.146 47.0252 148.64 45.4363C140.24 43.7873 130.664 43.1928 121.335 45.3066C116.71 46.3935 112.204 48.0286 108.089 50.2162C104.04 52.4548 100.17 54.9582 96.8297 57.885C93.3598 60.6857 90.3294 64.0629 87.6093 66.4545C84.8247 68.9352 81.4298 71.2386 79.0141 71.5683C77.8693 71.6938 77.3192 71.5869 76.4091 70.7883C75.954 70.3703 75.519 69.7621 75.1292 69.0559C74.6044 67.8766 73.3594 67.0401 71.8991 67.0401C69.9645 67.0401 68.3996 68.4938 68.3996 70.2959C68.3996 70.7696 68.5198 71.211 68.7143 71.6193C69.2488 72.8269 69.9497 74.0441 70.9994 75.233C71.9496 76.3013 73.2695 77.2999 74.8493 77.9364C75.1849 78.0661 75.5449 78.1081 75.8894 78.2061L7.43914 246.149H-0.000976562L0.00421157 246.154H-0.000976562C-0.000976562 256.637 3.78442 281.297 79.994 281.297C156.199 281.297 159.985 256.632 159.985 246.154H152.549L83.919 77.7599C85.1788 77.3233 86.3243 76.7751 87.3941 76.2178C89.5492 75.0703 91.4541 73.7655 93.244 72.3903C96.9789 69.4917 99.6537 66.7932 102.884 64.5125C105.998 62.0974 109.419 60.2071 112.859 58.5533C116.344 56.9699 119.969 55.9057 123.629 55.2644C130.979 54.0568 138.514 54.8789 145.799 56.7554C153.084 58.5485 160.149 61.2698 166.934 63.8484C173.736 66.4725 180.295 69.06 186.546 71.2379C192.791 73.4351 198.727 75.2137 204.112 76.5564C207.237 77.3089 210.141 77.9081 212.838 78.3957V255.847C207.852 256.228 203.922 260.125 203.922 264.849C203.922 269.275 207.276 272.917 211.813 273.711V292.779C211.813 337.94 162.365 366.589 141.494 366.589C134.939 366.589 131.509 371.132 131.509 375.623C131.509 380.116 134.939 384.658 141.494 384.658H308.508C315.063 384.658 318.488 380.111 318.488 375.623C318.488 371.127 315.059 366.589 308.508 366.589C287.633 366.589 238.193 337.94 238.193 292.779V273.711C242.723 272.922 246.089 269.275 246.089 264.849C246.089 260.12 242.153 256.228 237.168 255.847V78.395C239.864 77.9116 242.768 77.313 245.888 76.5558C251.278 75.2178 257.218 73.4344 263.457 71.2372C269.708 69.0586 276.274 66.4718 283.068 63.8477C289.858 61.2698 296.924 58.5478 304.209 56.7547C311.489 54.8782 319.023 54.0561 326.378 55.2637C330.034 55.9002 333.668 56.9637 337.149 58.5526C340.588 60.2064 344.013 62.0967 347.123 64.5118C350.354 66.7925 353.033 69.4959 356.764 72.3896C358.553 73.7599 360.459 75.0696 362.613 76.2171C363.689 76.7744 364.828 77.3226 366.089 77.7592L297.458 246.153H290.024H290.018C290.018 256.636 293.808 281.296 370.014 281.296C446.214 281.296 450.004 256.632 450.004 246.153H449.996ZM14.3767 246.148L79.997 85.1398L145.617 246.153L14.3767 246.148ZM304.401 246.153L370.016 85.1398L435.627 246.148L304.401 246.153Z" fill="black"/>
</g>
<defs>
<clipPath id="clip0">
<rect width="450" height="384.657" fill="white"/>
</clipPath>
</defs>
</svg>
