<svg version="1.1" viewBox="0.0 0.0 960.0 720.0" fill="none" stroke="none" stroke-linecap="square" stroke-miterlimit="10" xmlns:xlink="http://www.w3.org/1999/xlink" xmlns="http://www.w3.org/2000/svg"><clipPath id="p.0"><path d="m0 0l960.0 0l0 720.0l-960.0 0l0 -720.0z" clip-rule="nonzero"/></clipPath><g clip-path="url(#p.0)"><path fill="#000000" fill-opacity="0.0" d="m0 0l960.0 0l0 720.0l-960.0 0z" fill-rule="evenodd"/><path fill="#000000" fill-opacity="0.0" d="m336.95538 141.33595l277.54327 0l0 227.37007l-277.54327 0z" fill-rule="evenodd"/><path stroke="#000000" stroke-width="1.0" stroke-linejoin="round" stroke-linecap="butt" d="m336.95538 141.33595l277.54327 0l0 227.37007l-277.54327 0z" fill-rule="evenodd"/><path fill="#000000" d="m312.36484 122.902885l55.307068 0l0 51.212593l-55.307068 0z" fill-rule="evenodd"/><path stroke="#000000" stroke-width="1.0" stroke-linejoin="round" stroke-linecap="butt" d="m312.36484 122.902885l55.307068 0l0 51.212593l-55.307068 0z" fill-rule="evenodd"/><path fill="#000000" d="m448.0735 114.708664l55.3071 0l0 51.2126l-55.3071 0z" fill-rule="evenodd"/><path stroke="#000000" stroke-width="1.0" stroke-linejoin="round" stroke-linecap="butt" d="m448.0735 114.708664l55.3071 0l0 51.2126l-55.3071 0z" fill-rule="evenodd"/><path fill="#000000" d="m583.78217 122.902885l55.307068 0l0 51.212593l-55.307068 0z" fill-rule="evenodd"/><path stroke="#000000" stroke-width="1.0" stroke-linejoin="round" stroke-linecap="butt" d="m583.78217 122.902885l55.307068 0l0 51.212593l-55.307068 0z" fill-rule="evenodd"/><path fill="#000000" d="m312.36484 334.3937l55.307068 0l0 51.212585l-55.307068 0z" fill-rule="evenodd"/><path stroke="#000000" stroke-width="1.0" stroke-linejoin="round" stroke-linecap="butt" d="m312.36484 334.3937l55.307068 0l0 51.212585l-55.307068 0z" fill-rule="evenodd"/><path fill="#000000" d="m583.78217 334.3937l55.307068 0l0 51.212585l-55.307068 0z" fill-rule="evenodd"/><path stroke="#000000" stroke-width="1.0" stroke-linejoin="round" stroke-linecap="butt" d="m583.78217 334.3937l55.307068 0l0 51.212585l-55.307068 0z" fill-rule="evenodd"/><path fill="#000000" d="m312.36484 228.6483l55.307068 0l0 51.2126l-55.307068 0z" fill-rule="evenodd"/><path stroke="#000000" stroke-width="1.0" stroke-linejoin="round" stroke-linecap="butt" d="m312.36484 228.6483l55.307068 0l0 51.2126l-55.307068 0z" fill-rule="evenodd"/><path fill="#000000" d="m583.78217 228.6483l55.307068 0l0 51.2126l-55.307068 0z" fill-rule="evenodd"/><path stroke="#000000" stroke-width="1.0" stroke-linejoin="round" stroke-linecap="butt" d="m583.78217 228.6483l55.307068 0l0 51.2126l-55.307068 0z" fill-rule="evenodd"/><path fill="#000000" fill-opacity="0.0" d="m441.42258 225.3202l61.95276 0l0 54.551193l-61.95276 0z" fill-rule="evenodd"/><path stroke="#000000" stroke-width="1.0" stroke-linejoin="round" stroke-linecap="butt" d="m441.42258 225.3202l61.95276 0l0 54.551193l-61.95276 0z" fill-rule="evenodd"/></g></svg>