<svg width="86" height="85" viewBox="0 0 86 85" fill="none" xmlns="http://www.w3.org/2000/svg">
<g filter="url(#filter0_d)">
<g clip-path="url(#clip0)">
<path d="M63.8058 50.736C63.026 52.5374 62.103 54.1957 61.0336 55.7203C59.5758 57.7987 58.3823 59.2373 57.4624 60.0362C56.0365 61.3476 54.5088 62.0191 52.8728 62.0573C51.6983 62.0573 50.282 61.7231 48.6332 61.0452C46.9791 60.3704 45.459 60.0362 44.0691 60.0362C42.6113 60.0362 41.0479 60.3704 39.3757 61.0452C37.7009 61.7231 36.3517 62.0764 35.3201 62.1115C33.7513 62.1783 32.1876 61.4876 30.6267 60.0362C29.6305 59.1673 28.3844 57.6777 26.8917 55.5675C25.2901 53.3141 23.9733 50.7009 22.9418 47.7218C21.837 44.5039 21.2832 41.3879 21.2832 38.3712C21.2832 34.9156 22.0299 31.9352 23.5255 29.4376C24.7009 27.4315 26.2646 25.849 28.2218 24.6872C30.1789 23.5255 32.2936 22.9335 34.5709 22.8956C35.817 22.8956 37.451 23.281 39.4817 24.0386C41.5066 24.7986 42.8068 25.1841 43.3768 25.1841C43.803 25.1841 45.2474 24.7334 47.6959 23.8349C50.0114 23.0016 51.9657 22.6566 53.5666 22.7925C57.9048 23.1426 61.164 24.8527 63.3316 27.9337C59.4517 30.2846 57.5324 33.5772 57.5706 37.8012C57.6056 41.0913 58.7992 43.8292 61.145 46.0031C62.208 47.012 63.3952 47.7918 64.7161 48.3456C64.4296 49.1764 64.1273 49.9721 63.8058 50.736ZM53.8563 11.5838C53.8563 14.1625 52.9142 16.5703 51.0363 18.7989C48.7701 21.4483 46.0291 22.9793 43.0566 22.7377C43.0187 22.4283 42.9968 22.1027 42.9968 21.7606C42.9968 19.285 44.0745 16.6356 45.9883 14.4693C46.9438 13.3725 48.159 12.4605 49.6327 11.733C51.1031 11.0164 52.494 10.6201 53.8022 10.5522C53.8404 10.8969 53.8563 11.2417 53.8563 11.5837V11.5838Z" fill="white"/>
</g>
</g>
<defs>
<filter id="filter0_d" x="0.679688" y="0.332214" width="84.6462" height="84.6462" filterUnits="userSpaceOnUse" color-interpolation-filters="sRGB">
<feFlood flood-opacity="0" result="BackgroundImageFix"/>
<feColorMatrix in="SourceAlpha" type="matrix" values="0 0 0 0 0 0 0 0 0 0 0 0 0 0 0 0 0 0 127 0"/>
<feOffset dy="4"/>
<feGaussianBlur stdDeviation="2"/>
<feColorMatrix type="matrix" values="0 0 0 0 0 0 0 0 0 0 0 0 0 0 0 0 0 0 0.25 0"/>
<feBlend mode="normal" in2="BackgroundImageFix" result="effect1_dropShadow"/>
<feBlend mode="normal" in="SourceGraphic" in2="effect1_dropShadow" result="shape"/>
</filter>
<clipPath id="clip0">
<rect width="43.4329" height="51.5634" fill="white" transform="translate(21.2832 10.5516)"/>
</clipPath>
</defs>
</svg>
