<svg viewBox="0 0 481 463" fill="none" xmlns="http://www.w3.org/2000/svg">
<path d="M471.243 42.3569C471.243 24.4367 456.606 9.77466 438.716 9.77466H42.2867C24.3963 9.77466 9.75879 24.4367 9.75879 42.3569V299.255C9.75879 317.175 24.3963 331.837 42.2867 331.837H438.716C456.606 331.837 471.243 317.175 471.243 299.255V42.3569Z" fill="#E8E8E8"/>
<path d="M363.627 213.904C353.567 213.904 345.411 205.735 345.411 195.658V129.35C345.411 119.273 353.567 111.104 363.627 111.104C373.687 111.104 381.842 119.273 381.842 129.35V195.658C381.842 205.736 373.687 213.904 363.627 213.904Z" fill="#FEE050"/>
<path d="M374.007 414.957C368.644 414.957 363.218 413.517 358.32 410.487C344.253 401.794 339.888 383.324 348.568 369.238C353.987 360.441 363.295 337.911 364.744 285.87C365.625 254.23 363.05 228.192 363.026 227.933C361.368 211.46 373.354 196.76 389.799 195.101C406.251 193.434 420.917 205.448 422.574 221.92C423.825 234.355 433.812 345.031 399.502 400.72C393.845 409.902 384.041 414.957 374.007 414.957Z" fill="#FEE050"/>
<path d="M392.801 271.829C425.659 271.829 452.296 245.147 452.296 212.234C452.296 179.321 425.659 152.64 392.801 152.64C359.943 152.64 333.306 179.321 333.306 212.234C333.306 245.147 359.943 271.829 392.801 271.829Z" fill="#FEE050"/>
<path d="M147.258 281.515C137.198 281.515 129.042 273.346 129.042 263.269V196.961C129.042 186.884 137.198 178.715 147.258 178.715C157.318 178.715 165.474 186.884 165.474 196.961V263.269C165.474 273.347 157.318 281.515 147.258 281.515Z" fill="#FEE050"/>
<path d="M136.876 453.188C126.84 453.188 117.038 448.132 111.381 438.951C76.7669 382.765 87.1381 297.957 88.4353 288.469C90.6785 272.068 105.783 260.585 122.143 262.838C138.502 265.081 149.953 280.173 147.739 296.558C145.074 316.5 142.499 375.301 162.315 407.468C170.995 421.556 166.628 440.025 152.563 448.718C147.666 451.745 142.238 453.188 136.876 453.188Z" fill="#FEE050"/>
<path d="M118.085 339.439C150.943 339.439 177.579 312.758 177.579 279.845C177.579 246.932 150.943 220.251 118.085 220.251C85.2266 220.251 58.5898 246.932 58.5898 279.845C58.5898 312.758 85.2266 339.439 118.085 339.439Z" fill="#FEE050"/>
<path d="M179.143 120.683C174.101 120.683 170.011 124.78 170.011 129.83C170.011 134.88 174.101 138.976 179.143 138.976C184.184 138.976 188.274 134.88 188.274 129.83C188.274 124.78 184.184 120.683 179.143 120.683ZM220.048 243.606C215.004 243.606 210.917 247.702 210.917 252.75C210.917 257.802 215.004 261.899 220.048 261.899C225.09 261.899 229.18 257.802 229.18 252.75C229.18 247.701 225.09 243.606 220.048 243.606ZM138.236 79.7118C133.194 79.7118 129.107 83.8081 129.107 88.8557C129.107 93.9086 133.194 98.0048 138.236 98.0048C143.28 98.0048 147.369 93.9086 147.369 88.8557C147.369 83.8068 143.28 79.7118 138.236 79.7118ZM56.4254 120.683C51.3836 120.683 47.2942 124.78 47.2942 129.83C47.2942 134.88 51.3836 138.976 56.4254 138.976C61.4673 138.976 65.5567 134.88 65.5567 129.83C65.5567 124.78 61.4673 120.683 56.4254 120.683ZM138.236 120.683C133.194 120.683 129.107 124.78 129.107 129.83C129.107 134.88 133.194 138.976 138.236 138.976C143.28 138.976 147.369 134.88 147.369 129.83C147.369 124.78 143.28 120.683 138.236 120.683ZM220.048 202.63C215.004 202.63 210.917 206.727 210.917 211.777C210.917 216.827 215.004 220.923 220.048 220.923C225.09 220.923 229.18 216.827 229.18 211.777C229.18 206.727 225.09 202.63 220.048 202.63ZM97.3325 79.7118C92.2881 79.7118 88.2013 83.8081 88.2013 88.8557C88.2013 93.9086 92.2881 98.0048 97.3325 98.0048C102.374 98.0048 106.464 93.9086 106.464 88.8557C106.462 83.8068 102.374 79.7118 97.3325 79.7118ZM56.4254 79.7118C51.3836 79.7118 47.2942 83.8081 47.2942 88.8557C47.2942 93.9086 51.3836 98.0048 56.4254 98.0048C61.4673 98.0048 65.5567 93.9086 65.5567 88.8557C65.5567 83.8068 61.4673 79.7118 56.4254 79.7118ZM301.859 79.7118C296.817 79.7118 292.727 83.8081 292.727 88.8557C292.727 93.9086 296.817 98.0048 301.859 98.0048C306.9 98.0048 310.99 93.9086 310.99 88.8557C310.99 83.8068 306.9 79.7118 301.859 79.7118ZM342.764 79.7118C337.72 79.7118 333.633 83.8081 333.633 88.8557C333.633 93.9086 337.72 98.0048 342.764 98.0048C347.806 98.0048 351.896 93.9086 351.896 88.8557C351.896 83.8068 347.806 79.7118 342.764 79.7118ZM301.859 120.683C296.817 120.683 292.727 124.78 292.727 129.83C292.727 134.88 296.817 138.976 301.859 138.976C306.9 138.976 310.99 134.88 310.99 129.83C310.99 124.78 306.9 120.683 301.859 120.683ZM438.715 0H42.2862C18.969 0 0 19.0007 0 42.3569V299.255C0 322.611 18.969 341.612 42.2862 341.612H76.4678C77.6544 372.75 83.6057 412.482 103.076 444.084C110.359 455.905 122.994 462.962 136.876 462.962C144.218 462.962 151.415 460.914 157.687 457.036C166.709 451.462 173.021 442.7 175.464 432.368C177.907 422.035 176.187 411.369 170.619 402.335C162.43 389.044 157.342 367.697 156.034 341.611H348.613C345.593 354.103 342.246 360.881 340.264 364.103C334.696 373.138 332.975 383.805 335.417 394.137C337.86 404.47 344.172 413.23 353.191 418.804C359.462 422.683 366.661 424.732 374.005 424.732C387.887 424.732 400.522 417.674 407.806 405.854C418.765 388.065 425.478 365.321 429.454 341.612H438.714C462.031 341.612 481 322.611 481 299.255V42.3569C481.001 19.0007 462.031 0 438.715 0ZM141.386 323.862C138.151 325.584 136.153 328.975 136.208 332.644C136.577 356.535 139.965 389.8 154.012 412.603C156.84 417.194 157.715 422.614 156.473 427.865C155.232 433.115 152.024 437.567 147.44 440.4C144.251 442.372 140.597 443.414 136.877 443.414C129.815 443.414 123.389 439.828 119.687 433.82C100.096 402.022 95.8544 359.798 95.7451 329.976C95.7321 326.66 94.0446 323.578 91.2602 321.788C76.9154 312.559 68.3502 296.88 68.3502 279.846C68.3502 252.377 90.6604 230.028 118.087 230.028C121.112 230.028 124.197 230.317 127.258 230.888C130.108 231.423 133.049 230.655 135.281 228.798C137.512 226.941 138.803 224.185 138.803 221.279V196.962C138.803 192.291 142.597 188.491 147.26 188.491C151.923 188.491 155.717 192.291 155.717 196.962V243.826C155.717 245.963 156.416 248.04 157.707 249.74C164.324 258.462 167.822 268.873 167.822 279.846C167.819 298.311 157.69 315.179 141.386 323.862ZM419.535 254.233C416.678 256.061 414.974 259.245 415.033 262.64C416.072 321.738 407.605 368.952 391.197 395.588C387.495 401.596 381.069 405.182 374.007 405.182C370.286 405.182 366.633 404.141 363.444 402.168C358.86 399.335 355.652 394.883 354.411 389.633C353.169 384.382 354.044 378.962 356.874 374.37C364.121 362.604 373.063 337.745 374.5 286.143C374.691 279.239 374.735 272.029 374.629 264.715C374.577 261.156 372.596 257.904 369.459 256.231C353.178 247.542 343.065 230.682 343.065 212.234C343.065 201.261 346.562 190.851 353.18 182.128C354.47 180.427 355.169 178.351 355.169 176.214V129.35C355.169 124.679 358.963 120.879 363.626 120.879C368.29 120.879 372.084 124.679 372.084 129.35V153.667C372.084 156.572 373.374 159.329 375.606 161.186C377.837 163.043 380.783 163.808 383.628 163.276C386.69 162.705 389.775 162.416 392.8 162.416C420.225 162.416 442.536 184.764 442.536 212.234C442.535 229.311 433.937 245.012 419.535 254.233ZM461.485 299.255C461.485 311.83 451.27 322.062 438.715 322.062H432.128C434.17 303.153 434.757 284.319 434.615 267.519C449.551 256.202 459.152 239.508 461.483 221.035V299.255H461.485ZM461.485 203.504C457.135 168.977 427.381 142.262 391.6 142.877V134.35C392.36 133.015 392.8 131.475 392.8 129.829C392.8 127.893 392.195 126.1 391.171 124.621C388.916 111.418 377.439 101.329 363.626 101.329C350.256 101.329 339.061 110.78 336.312 123.358C334.658 125.014 333.634 127.301 333.634 129.829C333.634 131.997 334.392 133.987 335.652 135.557V173.055C327.721 184.616 323.547 198.09 323.547 212.234C323.547 225.652 327.393 238.459 334.29 249.36C333.871 250.409 333.634 251.551 333.634 252.748C333.634 257.801 337.721 261.897 342.766 261.897C343.297 261.897 343.816 261.843 344.322 261.755C347.608 264.982 351.224 267.916 355.164 270.469C355.185 275.626 355.126 280.696 354.99 285.599C354.586 300.079 353.561 312.107 352.207 322.064H173.012C182.137 310.162 187.337 295.425 187.337 279.846C187.337 273.078 186.372 266.467 184.505 260.143C186.785 258.48 188.273 255.792 188.273 252.75C188.273 247.702 184.183 243.606 179.141 243.606C178.492 243.606 177.86 243.676 177.248 243.805C176.603 242.746 175.937 241.696 175.23 240.667V196.962C175.23 181.512 162.681 168.942 147.256 168.942C131.832 168.942 119.282 181.512 119.282 196.962V210.489C118.882 210.483 118.482 210.479 118.083 210.479C114.116 210.479 110.233 210.832 106.447 211.478C106.288 206.566 102.272 202.632 97.3312 202.632C92.2868 202.632 88.2 206.728 88.2 211.778C88.2 213.568 88.7204 215.231 89.6065 216.639C76.8204 222.443 66.0836 232.01 58.8468 243.942C58.074 243.73 57.2647 243.606 56.4241 243.606C51.3823 243.606 47.2929 247.702 47.2929 252.75C47.2929 256.022 49.013 258.884 51.5905 260.5C49.8054 266.645 48.8295 273.132 48.8295 279.846C48.8295 295.405 53.978 310.135 63.1405 322.064H42.2862C29.7318 322.064 19.5167 311.832 19.5167 299.256V42.3569C19.5167 29.7815 29.7318 19.5494 42.2862 19.5494H438.715C451.27 19.5494 461.485 29.7815 461.485 42.3569V203.504ZM220.048 120.683C215.004 120.683 210.917 124.78 210.917 129.83C210.917 134.88 215.004 138.976 220.048 138.976C225.09 138.976 229.18 134.88 229.18 129.83C229.18 124.78 225.09 120.683 220.048 120.683ZM424.575 79.7118C419.533 79.7118 415.443 83.8081 415.443 88.8557C415.443 93.9086 419.533 98.0048 424.575 98.0048C429.616 98.0048 433.706 93.9086 433.706 88.8557C433.706 83.8068 429.616 79.7118 424.575 79.7118ZM260.953 243.606C255.911 243.606 251.824 247.702 251.824 252.75C251.824 257.802 255.911 261.899 260.953 261.899C265.997 261.899 270.084 257.802 270.084 252.75C270.083 247.701 265.997 243.606 260.953 243.606ZM220.048 79.7118C215.004 79.7118 210.917 83.8081 210.917 88.8557C210.917 93.9086 215.004 98.0048 220.048 98.0048C225.09 98.0048 229.18 93.9086 229.18 88.8557C229.18 83.8068 225.09 79.7118 220.048 79.7118ZM260.953 202.63C255.911 202.63 251.824 206.727 251.824 211.777C251.824 216.827 255.911 220.923 260.953 220.923C265.997 220.923 270.084 216.827 270.084 211.777C270.084 206.727 265.997 202.63 260.953 202.63ZM260.953 79.7118C255.911 79.7118 251.824 83.8081 251.824 88.8557C251.824 93.9086 255.911 98.0048 260.953 98.0048C265.997 98.0048 270.084 93.9086 270.084 88.8557C270.083 83.8068 265.997 79.7118 260.953 79.7118ZM301.859 243.606C296.817 243.606 292.727 247.702 292.727 252.75C292.727 257.802 296.817 261.899 301.859 261.899C306.9 261.899 310.99 257.802 310.99 252.75C310.99 247.701 306.9 243.606 301.859 243.606Z" fill="#071C2C"/>
</svg>
