<svg width="300px" viewBox="0 0 180 150" version="1.1" xmlns="http://www.w3.org/2000/svg" xmlns:xlink="http://www.w3.org/1999/xlink" xml:space="preserve" xmlns:serif="http://www.serif.com/" style="fill-rule:evenodd;clip-rule:evenodd;stroke-linejoin:round;stroke-miterlimit:10;">
    <g transform="matrix(1,0,0,1,-157.086,-228.389)">
        <rect x="175.498" y="246.112" width="144.554" height="118.422" style="fill-opacity:0;"/>
        <rect x="175.498" y="246.112" width="144.554" height="118.422" style="fill:none;stroke:black;stroke-width:0.52px;"/>
        <rect x="162.69" y="236.512" width="28.806" height="26.673"/>
        <rect x="162.69" y="236.512" width="28.806" height="26.673" style="fill:none;stroke:black;stroke-width:0.52px;"/>
        <rect x="233.372" y="232.244" width="28.806" height="26.673"/>
        <rect x="233.372" y="232.244" width="28.806" height="26.673" style="fill:none;stroke:black;stroke-width:0.52px;"/>
        <rect x="304.053" y="236.512" width="28.806" height="26.673"/>
        <rect x="304.053" y="236.512" width="28.806" height="26.673" style="fill:none;stroke:black;stroke-width:0.52px;"/>
        <rect x="162.69" y="346.663" width="28.806" height="26.673"/>
        <rect x="162.69" y="346.663" width="28.806" height="26.673" style="fill:none;stroke:black;stroke-width:0.52px;"/>
        <rect x="304.053" y="346.663" width="28.806" height="26.673"/>
        <rect x="304.053" y="346.663" width="28.806" height="26.673" style="fill:none;stroke:black;stroke-width:0.52px;"/>
        <rect x="162.69" y="291.588" width="28.806" height="26.673"/>
        <rect x="162.69" y="291.588" width="28.806" height="26.673" style="fill:none;stroke:black;stroke-width:0.52px;"/>
        <rect x="304.053" y="291.588" width="28.806" height="26.673"/>
        <rect x="304.053" y="291.588" width="28.806" height="26.673" style="fill:none;stroke:black;stroke-width:0.52px;"/>
        <rect x="229.908" y="289.854" width="32.267" height="28.412" style="fill-opacity:0;"/>
        <rect x="229.908" y="289.854" width="32.267" height="28.412" style="fill:none;stroke:black;stroke-width:0.52px;"/>
    </g>
</svg>
