<svg width="1440" height="508" viewBox="0 0 1440 508" fill="none" xmlns="http://www.w3.org/2000/svg">
<path d="M-10.1929 371.917L-28.7529 -1.64237L1651.49 -85.1241C1651.49 -85.1241 1676.89 414.25 1679.98 476.51C1538.36 510.105 1327.84 534.287 877.385 449.546C408.717 361.38 184.085 362.264 -10.1929 371.917Z" fill="#0D63B3"/>
<path d="M-10.193 371.917C184.085 362.264 408.717 361.38 877.385 449.546C1327.84 534.287 1538.36 510.105 1679.98 476.51C1679.41 465.099 1678.59 448.991 1677.6 429.717L1675.82 430.139C1534.32 463.71 1335.26 510.936 880.381 439.217C407.164 364.606 227.732 357.882 -10.3027 369.709L-10.193 371.917Z" fill="white" fill-opacity="0.2"/>
<path d="M-9.93905 365.264L-19.3945 174.952L1660.85 91.4705L1673.2 340.068C1514.5 382.923 1346.57 449.874 836.62 405.979C357.325 364.723 165.087 356.568 -9.93905 365.264Z" fill="url(#paint0_linear)" fill-opacity="0.1"/>
<defs>
<linearGradient id="paint0_linear" x1="819.171" y1="101.861" x2="835.884" y2="438.251" gradientUnits="userSpaceOnUse">
<stop stop-opacity="0"/>
<stop offset="1"/>
</linearGradient>
</defs>
</svg>
